<?xml version="1.0" encoding="utf-8"?><svg width="360" height="133" xmlns="http://www.w3.org/2000/svg"><g fill="none" fill-rule="evenodd"><path fill="#F4F8FA" d="M0 0h360v133H0z"/><path d="M140.523 75V57.937h5.977c2.07 0 3.64.397 4.71 1.19 1.071.793 1.606 1.955 1.606 3.486 0 .836-.214 1.573-.644 2.21-.43.636-1.027 1.103-1.793 1.4.875.218 1.564.66 2.068 1.324s.756 1.476.756 2.437c0 1.641-.523 2.883-1.57 3.727-1.047.844-2.54 1.273-4.477 1.289h-6.633zm3.516-7.43v4.606h3.012c.828 0 1.474-.197 1.94-.592.464-.395.696-.94.696-1.635 0-1.562-.808-2.355-2.425-2.379h-3.223zm0-2.484h2.602c1.773-.031 2.66-.738 2.66-2.121 0-.774-.225-1.33-.674-1.67-.45-.34-1.158-.51-2.127-.51h-2.46v4.3zM159.58 75h-3.517V57.937h3.516V75zm16.1-14.215h-5.226V75h-3.516V60.785h-5.156v-2.847h13.899v2.847zm15.4 8.531c-.134 1.836-.811 3.282-2.034 4.336-1.223 1.055-2.834 1.582-4.834 1.582-2.188 0-3.908-.736-5.162-2.209-1.254-1.472-1.881-3.494-1.881-6.064v-1.043c0-1.64.289-3.086.867-4.336.578-1.25 1.404-2.209 2.479-2.877 1.074-.668 2.322-1.002 3.744-1.002 1.969 0 3.554.527 4.758 1.582 1.203 1.055 1.898 2.535 2.086 4.442h-3.516c-.086-1.102-.393-1.9-.92-2.397-.527-.496-1.33-.744-2.408-.744-1.172 0-2.049.42-2.631 1.26-.582.84-.88 2.142-.897 3.908v1.289c0 1.844.28 3.191.838 4.043.559.852 1.44 1.277 2.643 1.277 1.086 0 1.896-.248 2.432-.744.535-.496.841-1.264.92-2.303h3.515zm16.323-2.46c0 1.68-.297 3.152-.89 4.417-.594 1.266-1.444 2.243-2.55 2.93-1.105.688-2.372 1.031-3.802 1.031-1.414 0-2.676-.34-3.785-1.02-1.11-.679-1.969-1.65-2.578-2.911-.61-1.262-.918-2.713-.926-4.354v-.844c0-1.68.303-3.158.908-4.435.606-1.277 1.461-2.258 2.567-2.941 1.105-.684 2.369-1.026 3.79-1.026 1.423 0 2.686.342 3.792 1.026 1.105.683 1.96 1.664 2.566 2.94.606 1.278.908 2.753.908 4.425v.761zm-3.562-.774c0-1.789-.32-3.148-.961-4.078-.64-.93-1.555-1.395-2.742-1.395-1.18 0-2.09.46-2.73 1.377-.641.918-.966 2.264-.973 4.037v.832c0 1.743.32 3.094.96 4.055.641.961 1.563 1.442 2.766 1.442 1.18 0 2.086-.463 2.719-1.39.633-.925.953-2.274.96-4.048v-.832zM213.695 75h-3.515V57.937h3.515V75zm17.133 0h-3.516l-6.843-11.227V75h-3.516V57.937h3.516l6.855 11.25v-11.25h3.504V75z" fill="#2B4269"/><g transform="translate(67 40)" fill-rule="nonzero"><circle fill="#F7931A" cx="27" cy="27" r="27"/><path d="M39.131 23.66c.53-3.538-2.164-5.44-5.847-6.709l1.195-4.791-2.917-.727-1.163 4.665c-.767-.19-1.554-.371-2.337-.55l1.172-4.696-2.916-.727-1.195 4.79a97.58 97.58 0 0 1-1.863-.438l.004-.015-4.023-1.004-.776 3.115s2.164.496 2.119.527c1.181.295 1.394 1.077 1.359 1.697l-1.361 5.459c.081.02.187.05.303.097l-.308-.077-1.907 7.648c-.145.358-.511.897-1.337.692.029.043-2.12-.529-2.12-.529l-1.448 3.34 3.795.945c.707.177 1.399.363 2.08.537l-1.207 4.847 2.913.727 1.196-4.796c.796.216 1.568.416 2.324.604l-1.191 4.772 2.917.727 1.207-4.837c4.974.941 8.714.561 10.288-3.937 1.269-3.622-.063-5.712-2.68-7.074 1.906-.44 3.341-1.693 3.724-4.283zm-6.664 9.344c-.901 3.623-7 1.664-8.977 1.173l1.601-6.42c1.978.493 8.318 1.47 7.376 5.247zm.902-9.397c-.822 3.295-5.898 1.62-7.545 1.21l1.452-5.824c1.647.41 6.95 1.177 6.093 4.614z" fill="#FFF"/></g></g></svg>