<?xml version="1.0" encoding="utf-8"?><svg width="360" height="133" xmlns="http://www.w3.org/2000/svg"><g fill="none" fill-rule="evenodd"><path fill="#F4F8FA" d="M0 0h360v133H0z"/><path d="M153.918 69.316c-.133 1.836-.81 3.282-2.033 4.336-1.223 1.055-2.834 1.582-4.834 1.582-2.188 0-3.908-.736-5.162-2.209-1.254-1.472-1.881-3.494-1.881-6.064v-1.043c0-1.64.289-3.086.867-4.336.578-1.25 1.404-2.209 2.479-2.877 1.074-.668 2.322-1.002 3.744-1.002 1.968 0 3.554.527 4.757 1.582 1.204 1.055 1.899 2.535 2.086 4.442h-3.515c-.086-1.102-.393-1.9-.92-2.397-.527-.496-1.33-.744-2.408-.744-1.172 0-2.05.42-2.631 1.26-.582.84-.881 2.142-.897 3.908v1.289c0 1.844.28 3.191.838 4.043.559.852 1.44 1.277 2.643 1.277 1.086 0 1.896-.248 2.431-.744.536-.496.842-1.264.92-2.303h3.516zm5.824 2.86h7.465V75h-10.98V57.937h3.515v14.239zm19.113-.692h-6.164L171.52 75h-3.739l6.352-17.063h3.258L183.777 75h-3.738l-1.184-3.516zm-5.214-2.847h4.265l-2.144-6.387-2.121 6.387zm16.324-10.7l4.383 12.376 4.359-12.376h4.617V75h-3.527v-4.664l.351-8.05L195.543 75h-2.414l-4.594-12.703.352 8.039V75h-3.516V57.937h4.594zm25.277 12.586c0-.664-.234-1.173-.703-1.529-.469-.355-1.312-.73-2.531-1.125-1.219-.394-2.184-.783-2.895-1.166-1.937-1.047-2.906-2.457-2.906-4.23 0-.922.26-1.744.78-2.467.519-.723 1.265-1.287 2.238-1.694.972-.406 2.064-.609 3.275-.609 1.219 0 2.305.22 3.258.662.953.442 1.693 1.065 2.22 1.87.528.804.792 1.718.792 2.742h-3.516c0-.782-.246-1.39-.738-1.823-.493-.433-1.184-.65-2.075-.65-.859 0-1.527.182-2.004.545-.476.363-.714.842-.714 1.435 0 .555.279 1.02.838 1.395.558.375 1.38.726 2.466 1.055 2 .601 3.457 1.347 4.371 2.238.915.89 1.372 2 1.372 3.328 0 1.477-.56 2.635-1.676 3.475-1.117.84-2.621 1.26-4.512 1.26-1.312 0-2.508-.24-3.586-.721-1.078-.48-1.9-1.139-2.467-1.975-.566-.836-.85-1.805-.85-2.906h3.528c0 1.883 1.125 2.824 3.375 2.824.836 0 1.488-.17 1.957-.51.469-.34.703-.814.703-1.424z" fill="#2B4269"/><g transform="translate(67 40)" fill-rule="nonzero"><circle fill="#20C5D3" cx="27" cy="27" r="27"/><path d="M30.053 13.282v-.151c.3-.127.893-.247 1.911.026 1.167.314 2.068 1.487 2.481 2.117l-.003.406c-.02 2.258-.739 7.84-1.985 12.026-1.088 3.657-3.463 8.522-3.944 9.493a6.004 6.004 0 0 0-.72-.113c.2-1.234 1.077-6.728 1.629-11.735.585-5.312.631-10.58.631-12.07zm4.893 2.402v-.02c.44-.008 1.411.07 2.52.784 1.073.69 1.626 2.003 1.857 2.709l-.107.416c-.262 1.016-2.2 6.252-4.284 10.199-1.767 3.346-4.591 7.046-5.207 7.839a5.517 5.517 0 0 0-.716-.282c.572-1.159 2.863-5.892 3.932-9.483 1.258-4.229 1.984-9.876 2.005-12.162zm.433 14.317c1.985-3.758 3.99-9.032 4.32-10.289.438.16 1.376.578 1.987 1.412.522.712.694 1.676.75 2.281l-.205.477c-.394.916-2.802 5.139-5.225 8.147-2.1 2.606-5.254 5.697-6.01 6.43a5.344 5.344 0 0 0-.823-.607c.71-.92 3.464-4.552 5.206-7.85zM18.571 16.075l-.06-.462c.275-.6.883-1.598 2.046-2.13 1.264-.577 2.249-.42 2.69-.292l.003.1c.035 1.004.299 5.947.946 11.78.593 5.338 1.55 11.014 1.735 12.093a5.896 5.896 0 0 0-.746.186c-.469-.995-2.557-5.518-3.962-10.05-1.566-5.053-2.463-9.745-2.652-11.225zm5.183-2.802l-.007-.23c.462-.416 1.539-1.23 2.884-1.23s2.444.814 2.918 1.23v.239c0 1.482-.045 6.728-.628 12.015-.56 5.068-1.452 10.641-1.634 11.762-.044 0-.087-.003-.132-.003-.242 0-.484.013-.725.038-.179-1.039-1.14-6.728-1.733-12.076-.646-5.82-.908-10.744-.943-11.745zm3.402 24.28c2.728 0 3.985 1.655 4.365 2.285-2.068 1.45-3.75 2.35-4.344 2.35-.593 0-2.07-.743-4.393-2.422.37-.6 1.624-2.213 4.372-2.213zm15.526-13.448c.415.27 1.267.999 1.188 2.399-.105 1.841-3.266 5.493-7.234 9.186a49.226 49.226 0 0 1-4.71 3.86 5.212 5.212 0 0 0-.574-.74c.77-.746 3.936-3.85 6.048-6.472 2.429-3.015 4.848-7.25 5.282-8.233zm-31.174-.356c-.122-.306-.239-.614-.349-.924a3.308 3.308 0 0 1 .39-1.567c.575-1.047 2.04-1.526 2.621-1.68l.003.01.063.22c.42 1.47 1.407 4.914 4.002 9.892 2.317 4.444 4.835 7.514 5.54 8.337-.189.13-.368.27-.538.424-.729-.62-3.632-3.159-6.598-6.745-2.5-3.024-4.228-5.705-5.134-7.967zm11.376 15.064a4.912 4.912 0 0 0-.506.656 77.352 77.352 0 0 1-4.273-3.427c-5.08-4.345-7.863-7.366-7.973-9.275-.085-1.457.655-2.279 1.011-2.587.95 2.256 2.665 4.894 5.108 7.85 2.952 3.57 5.848 6.115 6.633 6.783zm-8.226-19.361c-.066-.225-.116-.41-.155-.566.13-.617.45-1.542 1.235-2.113a3.66 3.66 0 0 1 2.326-.693l.007.057c.19 1.494 1.095 6.224 2.67 11.308 1.397 4.507 3.465 9.004 3.971 10.08a5.36 5.36 0 0 0-.504.245c-.615-.713-3.17-3.786-5.521-8.297-2.573-4.934-3.55-8.344-3.966-9.8l-.063-.221z" fill="#FFF"/></g></g></svg>