<?xml version="1.0" encoding="utf-8"?><svg width="360" height="133" xmlns="http://www.w3.org/2000/svg"><g fill="none" fill-rule="evenodd"><path fill="#F4F8FA" d="M0 0h360v133H0z"/><path d="M140.523 75V57.937h5.25c1.5 0 2.842.338 4.026 1.014 1.183.676 2.107 1.637 2.771 2.883.664 1.246.996 2.662.996 4.248v.785c0 1.586-.326 2.996-.978 4.23a7.008 7.008 0 0 1-2.76 2.872c-1.187.68-2.527 1.023-4.02 1.031h-5.285zm3.516-14.215v11.39h1.7c1.374 0 2.425-.448 3.152-1.347.726-.898 1.097-2.183 1.113-3.855v-.903c0-1.734-.36-3.049-1.078-3.943-.719-.895-1.77-1.342-3.153-1.342h-1.734zm21.715 10.7h-6.164L158.418 75h-3.738l6.351-17.063h3.258L170.676 75h-3.738l-1.184-3.516zm-5.215-2.848h4.266l-2.145-6.387-2.12 6.387zm20.578 1.886c0-.664-.234-1.173-.703-1.529-.469-.355-1.312-.73-2.531-1.125-1.219-.394-2.184-.783-2.895-1.166-1.937-1.047-2.906-2.457-2.906-4.23 0-.922.26-1.744.78-2.467.519-.723 1.265-1.287 2.238-1.694.972-.406 2.064-.609 3.275-.609 1.219 0 2.305.22 3.258.662.953.442 1.693 1.065 2.22 1.87.528.804.792 1.718.792 2.742h-3.516c0-.782-.246-1.39-.738-1.823-.493-.433-1.184-.65-2.075-.65-.859 0-1.527.182-2.004.545-.476.363-.714.842-.714 1.435 0 .555.279 1.02.838 1.395.558.375 1.38.726 2.466 1.055 2 .601 3.457 1.347 4.371 2.238.915.89 1.372 2 1.372 3.328 0 1.477-.56 2.635-1.676 3.475-1.117.84-2.621 1.26-4.512 1.26-1.312 0-2.508-.24-3.586-.721-1.078-.48-1.9-1.139-2.467-1.975-.566-.836-.85-1.805-.85-2.906h3.528c0 1.883 1.125 2.824 3.375 2.824.836 0 1.488-.17 1.957-.51.469-.34.703-.814.703-1.424zM200.91 75h-3.515v-7.313h-6.856V75h-3.516V57.937h3.516v6.915h6.856v-6.915h3.515V75z" fill="#2B4269"/><path d="M84.596 72.424l-2.409.934 1.162-4.655 2.436-.98L89.297 53.5h8.655L95.39 63.956l2.38-.964-1.148 4.64-2.408.964-1.431 5.878h13.03L104.34 80.5H82.613z" fill="#FFF" fill-rule="nonzero"/><g transform="translate(67 40)" fill-rule="nonzero"><circle fill="#1C75BC" cx="27" cy="27" r="27"/><path d="M44.84 21.89L41.4 32.656s-2.121 5.368-7.168 5.368H9.9l1.736-5.368h22.05l3.471-10.768H15.14l1.704-5.368h24.203c5.304 0 3.793 5.368 3.793 5.368zm-34.072 2.892h13.05l-1.672 4.982H9.064l1.704-4.982z" fill="#FFF"/></g></g></svg>