<?xml version="1.0" encoding="utf-8"?><svg width="360" height="133" xmlns="http://www.w3.org/2000/svg"><g fill="none" fill-rule="evenodd"><path fill="#F4F8FA" d="M0 0h360v133H0z"/><path d="M140.523 75V57.937h5.25c1.5 0 2.842.338 4.026 1.014 1.183.676 2.107 1.637 2.771 2.883.664 1.246.996 2.662.996 4.248v.785c0 1.586-.326 2.996-.978 4.23a7.008 7.008 0 0 1-2.76 2.872c-1.187.68-2.527 1.023-4.02 1.031h-5.285zm3.516-14.215v11.39h1.7c1.374 0 2.425-.448 3.152-1.347.726-.898 1.097-2.183 1.113-3.855v-.903c0-1.734-.36-3.049-1.078-3.943-.719-.895-1.77-1.342-3.153-1.342h-1.734zm26.098 6.07c0 1.68-.297 3.153-.89 4.418-.595 1.266-1.444 2.243-2.55 2.93-1.105.688-2.373 1.031-3.802 1.031-1.415 0-2.676-.34-3.786-1.02-1.109-.679-1.968-1.65-2.578-2.911-.61-1.262-.918-2.713-.926-4.354v-.844c0-1.68.303-3.158.909-4.435.605-1.277 1.46-2.258 2.566-2.941 1.106-.684 2.37-1.026 3.791-1.026 1.422 0 2.686.342 3.791 1.026 1.106.683 1.961 1.664 2.567 2.94.605 1.278.908 2.753.908 4.425v.761zm-3.563-.773c0-1.789-.32-3.148-.96-4.078-.641-.93-1.555-1.395-2.743-1.395-1.18 0-2.09.46-2.73 1.377-.641.918-.965 2.264-.973 4.037v.832c0 1.743.32 3.094.96 4.055.642.961 1.563 1.442 2.767 1.442 1.18 0 2.085-.463 2.718-1.39.633-.925.953-2.274.961-4.048v-.832zm19.617 6.762c-.632.758-1.527 1.345-2.683 1.763-1.156.418-2.438.627-3.844.627-1.477 0-2.771-.322-3.885-.966-1.113-.645-1.972-1.58-2.578-2.807-.605-1.227-.916-2.668-.931-4.324v-1.16c0-1.704.287-3.178.86-4.424.575-1.246 1.403-2.2 2.485-2.86 1.082-.66 2.35-.99 3.803-.99 2.023 0 3.605.483 4.746 1.447 1.14.965 1.816 2.37 2.027 4.213h-3.421c-.157-.976-.502-1.691-1.038-2.144-.535-.453-1.271-.68-2.209-.68-1.195 0-2.105.45-2.73 1.348-.625.898-.941 2.234-.95 4.008v1.09c0 1.788.34 3.14 1.02 4.054.68.914 1.676 1.371 2.989 1.371 1.32 0 2.261-.281 2.824-.844v-2.941h-3.2v-2.59h6.715v6.809zm16.243-3.528c-.133 1.836-.81 3.282-2.034 4.336-1.222 1.055-2.834 1.582-4.834 1.582-2.187 0-3.908-.736-5.162-2.209-1.254-1.472-1.88-3.494-1.88-6.064v-1.043c0-1.64.288-3.086.867-4.336.578-1.25 1.404-2.209 2.478-2.877 1.074-.668 2.322-1.002 3.744-1.002 1.969 0 3.555.527 4.758 1.582 1.203 1.055 1.899 2.535 2.086 4.442h-3.516c-.086-1.102-.392-1.9-.92-2.397-.527-.496-1.33-.744-2.408-.744-1.172 0-2.049.42-2.63 1.26-.583.84-.881 2.142-.897 3.908v1.289c0 1.844.28 3.191.838 4.043.558.852 1.44 1.277 2.642 1.277 1.086 0 1.897-.248 2.432-.744.535-.496.842-1.264.92-2.303h3.516zm16.324-2.46c0 1.68-.297 3.152-.89 4.417-.595 1.266-1.444 2.243-2.55 2.93-1.105.688-2.373 1.031-3.802 1.031-1.414 0-2.676-.34-3.786-1.02-1.109-.679-1.968-1.65-2.578-2.911-.609-1.262-.918-2.713-.925-4.354v-.844c0-1.68.302-3.158.908-4.435.605-1.277 1.46-2.258 2.566-2.941 1.106-.684 2.37-1.026 3.791-1.026 1.422 0 2.686.342 3.791 1.026 1.106.683 1.961 1.664 2.567 2.94.605 1.278.908 2.753.908 4.425v.761zm-3.563-.774c0-1.789-.32-3.148-.96-4.078-.641-.93-1.555-1.395-2.743-1.395-1.18 0-2.09.46-2.73 1.377-.64.918-.965 2.264-.973 4.037v.832c0 1.743.32 3.094.961 4.055.64.961 1.562 1.442 2.766 1.442 1.18 0 2.086-.463 2.718-1.39.633-.925.953-2.274.961-4.048v-.832zM225.051 75h-3.516V57.937h3.516V75zm17.133 0h-3.516l-6.844-11.227V75h-3.515V57.937h3.515l6.856 11.25v-11.25h3.504V75z" fill="#2B4269"/><g transform="translate(67 40)" fill-rule="nonzero"><circle fill="#C3A634" cx="27" cy="27" r="27"/><path d="M21.938 23.9h7.292v3.712h-7.293v7.826h4.6c1.82 0 3.31-.237 4.47-.71 1.158-.473 2.068-1.129 2.729-1.966.66-.837 1.11-1.82 1.346-2.948.237-1.128.355-2.347.355-3.658 0-1.31-.118-2.53-.355-3.658-.237-1.128-.685-2.11-1.346-2.948-.66-.837-1.57-1.492-2.73-1.965-1.16-.473-2.649-.71-4.469-.71h-4.6V23.9zm-4.25 4.613h-2.5v-3.858h2.5V13.5H28.74c2.04 0 3.808.353 5.301 1.059 1.494.706 2.713 1.67 3.659 2.893.946 1.222 1.649 2.653 2.11 4.292.46 1.638.69 3.39.69 5.256s-.23 3.618-.69 5.256c-.461 1.639-1.164 3.07-2.11 4.292-.946 1.223-2.165 2.187-3.659 2.893-1.493.706-3.26 1.059-5.301 1.059H17.689V28.513z" fill="#FFF"/></g></g></svg>