<?xml version="1.0" encoding="utf-8"?><svg width="360" height="133" xmlns="http://www.w3.org/2000/svg"><g fill="none" fill-rule="evenodd"><path fill="#F4F8FA" d="M0 0h360v133H0z"/><path d="M150.79 67.605h-6.75v4.57h7.92V75h-11.437V57.937h11.415v2.848h-7.899v4.067h6.75v2.753zm16.077-6.82h-5.226V75h-3.516V60.785h-5.156v-2.847h13.898v2.847zM182.757 75h-3.515v-7.313h-6.855V75h-3.516V57.937h3.516v6.915h6.855v-6.915h3.516V75zm13.337-7.395h-6.75v4.57h7.922V75h-11.438V57.937h11.414v2.848h-7.898v4.067h6.75v2.753zm9.55 1.149h-2.8V75h-3.516V57.937h6.34c2.016 0 3.57.45 4.664 1.348 1.094.899 1.64 2.168 1.64 3.809 0 1.164-.251 2.135-.755 2.912-.504.777-1.268 1.396-2.291 1.857l3.691 6.973V75h-3.773l-3.2-6.246zm-2.8-2.848h2.836c.883 0 1.566-.224 2.05-.674.485-.449.727-1.068.727-1.857 0-.805-.228-1.437-.686-1.898-.457-.461-1.158-.692-2.103-.692h-2.824v5.121zm22.066 1.7h-6.75v4.57h7.922V75h-11.437V57.937h11.414v2.848h-7.899v4.067h6.75v2.753zm16.149-9.668v11.238c0 1.867-.584 3.344-1.752 4.43-1.168 1.085-2.764 1.628-4.787 1.628-1.993 0-3.575-.527-4.747-1.582-1.171-1.054-1.77-2.504-1.793-4.347V57.937h3.516V69.2c0 1.117.268 1.932.803 2.444.535.511 1.275.767 2.22.767 1.977 0 2.981-1.039 3.012-3.117V57.937h3.528zm7.476 0l4.383 12.374 4.36-12.374h4.617V75h-3.528v-4.664l.352-8.05L254.113 75H251.7l-4.594-12.703.352 8.039V75h-3.516V57.937h4.594z" fill="#2B4269"/><path d="M84.596 72.424l-2.409.934 1.162-4.655 2.436-.98L89.297 53.5h8.655L95.39 63.956l2.38-.964-1.148 4.64-2.408.964-1.431 5.878h13.03L104.34 80.5H82.613z" fill="#FFF" fill-rule="nonzero"/><g transform="translate(67 40)" fill-rule="nonzero"><circle fill="#627EEA" cx="27" cy="27" r="27"/><g fill="#FFF"><path fill-opacity=".602" d="M27.84 6.75v14.968l12.652 5.653z"/><path d="M27.84 6.75L15.188 27.371l12.652-5.653z"/><path fill-opacity=".602" d="M27.84 37.071v10.17L40.5 29.728z"/><path d="M27.84 47.242V37.069l-12.652-7.342z"/><path fill-opacity=".2" d="M27.84 34.717l12.652-7.346-12.652-5.65z"/><path fill-opacity=".602" d="M15.188 27.371l12.652 7.346V21.722z"/></g></g></g></svg>