<?xml version="1.0" encoding="utf-8"?><svg width="360" height="133" xmlns="http://www.w3.org/2000/svg"><g fill="none" fill-rule="evenodd"><path fill="#F4F8FA" d="M0 0h360v133H0z"/><path d="M144.04 72.176h7.464V75h-10.98V57.937h3.515v14.239zM157.257 75h-3.516V57.937h3.516V75zm12.105-4.477c0-.664-.234-1.173-.703-1.529-.469-.355-1.312-.73-2.531-1.125-1.219-.394-2.184-.783-2.895-1.166-1.937-1.047-2.906-2.457-2.906-4.23 0-.922.26-1.744.78-2.467.519-.723 1.265-1.287 2.238-1.694.972-.406 2.064-.609 3.275-.609 1.219 0 2.305.22 3.258.662.953.442 1.693 1.065 2.22 1.87.528.804.792 1.718.792 2.742h-3.516c0-.782-.246-1.39-.738-1.823-.492-.433-1.184-.65-2.075-.65-.859 0-1.527.182-2.003.545-.477.363-.715.842-.715 1.435 0 .555.279 1.02.838 1.395.558.375 1.38.726 2.466 1.055 2 .601 3.457 1.347 4.372 2.238.914.89 1.37 2 1.37 3.328 0 1.477-.558 2.635-1.675 3.475-1.117.84-2.621 1.26-4.512 1.26-1.312 0-2.508-.24-3.586-.721-1.078-.48-1.9-1.139-2.467-1.975-.566-.836-.85-1.805-.85-2.906h3.528c0 1.883 1.125 2.824 3.375 2.824.836 0 1.488-.17 1.957-.51.469-.34.703-.814.703-1.424zm11.25-2.367l-1.828 1.969V75h-3.515V57.937h3.515v7.735l1.547-2.121 4.348-5.614h4.324l-6.059 7.583L189.18 75h-4.184l-4.383-6.844z" fill="#2B4269"/><g transform="translate(67 40)" fill-rule="nonzero"><circle fill="#0288D1" cx="27" cy="27" r="27"/><path d="M22.64 22.106c.146-.123.265-.068.265.123V34.85a.347.347 0 0 1-.347.347h-2.053a.347.347 0 0 1-.347-.347c0-1.67 0-8.641.002-10.31 0-.192.12-.447.267-.57l2.213-1.864zm-4.152 10.737c.162 0 .318.155.318.346v1.661a.347.347 0 0 1-.348.347H9.564l.005-.006a.343.343 0 0 1-.288-.339V21.08c0-.191.118-.447.264-.572l2.197-1.878c.146-.124.264-.07.264.121V32.496c0 .232.165.347.347.347h6.135zm14.118-4.32c.5.354.87.761 1.111 1.223.242.462.362 1.014.362 1.656 0 1.301-.475 2.299-1.425 2.994-.95.694-2.426 1.041-4.198 1.041-1.896 0-3.34-.497-4.191-.969a.339.339 0 0 1-.116-.474l.795-1.295a.383.383 0 0 1 .49-.137c.677.333 1.668.707 3.119.707 1.747 0 2.737-.526 2.737-1.578 0-.337-.097-.618-.29-.843-.193-.224-.512-.458-.954-.698-.443-.241-1.06-.514-1.848-.82-1.538-.594-2.579-1.188-3.122-1.782-.544-.594-.815-1.365-.815-2.313 0-1.14.46-2.025 1.383-2.656.921-.63 2.175-.945 3.761-.945 1.367 0 2.67.24 3.908.72.179.07.244.266.148.432l-.832 1.438a.43.43 0 0 1-.5.18c-1.089-.385-2.03-.578-2.82-.578-1.498 0-2.246.426-2.246 1.277 0 .417.195.77.585 1.06.39.289 1.242.686 2.555 1.192 1.103.426 1.904.815 2.403 1.168zm13.721-6.343l-4.832 5.156a.445.445 0 0 0-.059.535l4.526 7.018c.104.16.033.308-.16.308h-2.29c-.192 0-.432-.147-.536-.308l-3.447-5.491a.275.275 0 0 0-.438-.05l-.944.91a.936.936 0 0 0-.25.588v3.988a.362.362 0 0 1-.346.363h-2.06a.344.344 0 0 1-.347-.345V21.08c0-.191.118-.447.264-.572l2.197-1.877c.146-.125.264-.07.264.12v8.356c0 .192.115.242.256.112l5.05-5.048c.142-.129.412-.234.604-.234h2.448c.192 0 .237.11.1.244z" fill="#FFF"/></g></g></svg>