<?xml version="1.0" encoding="utf-8"?><svg width="360" height="133" xmlns="http://www.w3.org/2000/svg"><g fill="none" fill-rule="evenodd"><path fill="#F4F8FA" d="M0 0h360v133H0z"/><path d="M145.117 57.938l4.383 12.374 4.36-12.374h4.617V75h-3.528v-4.664l.352-8.05L150.695 75h-2.414l-4.594-12.703.352 8.039V75h-3.516V57.937h4.594zm30.446 8.917c0 1.68-.297 3.153-.891 4.418-.594 1.266-1.443 2.243-2.549 2.93-1.105.688-2.373 1.031-3.803 1.031-1.414 0-2.675-.34-3.785-1.02-1.11-.679-1.969-1.65-2.578-2.911-.61-1.262-.918-2.713-.926-4.354v-.844c0-1.68.303-3.158.908-4.435.606-1.277 1.461-2.258 2.567-2.941 1.105-.684 2.369-1.026 3.79-1.026 1.423 0 2.686.342 3.792 1.026 1.105.683 1.96 1.664 2.566 2.94.606 1.278.909 2.753.909 4.425v.761zM172 66.082c0-1.789-.32-3.148-.96-4.078-.642-.93-1.556-1.395-2.743-1.395-1.18 0-2.09.46-2.73 1.377-.641.918-.965 2.264-.973 4.037v.832c0 1.743.32 3.094.96 4.055.641.961 1.563 1.442 2.766 1.442 1.18 0 2.086-.463 2.72-1.39.632-.925.952-2.274.96-4.048v-.832zM191.992 75h-3.515l-6.844-11.227V75h-3.516V57.937h3.516l6.855 11.25v-11.25h3.504V75zm13.336-7.395h-6.75v4.57h7.922V75h-11.438V57.937h11.415v2.848h-7.899v4.067h6.75v2.753zm9.55 1.149h-2.8V75h-3.516V57.937h6.34c2.016 0 3.57.45 4.664 1.348 1.094.899 1.641 2.168 1.641 3.809 0 1.164-.252 2.135-.756 2.912-.504.777-1.267 1.396-2.29 1.857l3.69 6.973V75h-3.773l-3.2-6.246zm-2.8-2.848h2.836c.883 0 1.566-.224 2.05-.674.485-.449.727-1.068.727-1.857 0-.805-.228-1.437-.685-1.898-.457-.461-1.158-.692-2.104-.692h-2.824v5.121zm25.817.95c0 1.68-.297 3.152-.891 4.417-.594 1.266-1.443 2.243-2.549 2.93-1.105.688-2.373 1.031-3.803 1.031-1.414 0-2.675-.34-3.785-1.02-1.11-.679-1.969-1.65-2.578-2.911-.61-1.262-.918-2.713-.926-4.354v-.844c0-1.68.303-3.158.908-4.435.606-1.277 1.461-2.258 2.567-2.941 1.105-.684 2.369-1.026 3.79-1.026 1.423 0 2.686.342 3.792 1.026 1.105.683 1.96 1.664 2.566 2.94.606 1.278.909 2.753.909 4.425v.761zm-3.563-.774c0-1.789-.32-3.148-.96-4.078-.642-.93-1.556-1.395-2.743-1.395-1.18 0-2.09.46-2.73 1.377-.641.918-.965 2.264-.973 4.037v.832c0 1.743.32 3.094.96 4.055.641.961 1.563 1.442 2.766 1.442 1.18 0 2.086-.463 2.72-1.39.632-.925.952-2.274.96-4.048v-.832z" fill="#2B4269"/><path d="M106.131 63.66c.53-3.538-2.164-5.44-5.847-6.709l1.195-4.791-2.917-.727-1.163 4.665c-.767-.19-1.554-.371-2.337-.55l1.172-4.696-2.916-.727-1.195 4.79a97.579 97.579 0 0 1-1.863-.438l.004-.015-4.023-1.004-.776 3.115s2.164.496 2.119.527c1.181.295 1.394 1.077 1.359 1.697l-1.361 5.459c.081.02.187.05.303.097l-.308-.077-1.907 7.648c-.145.358-.511.897-1.337.692.029.043-2.12-.529-2.12-.529l-1.448 3.34 3.795.945c.707.177 1.399.363 2.08.537l-1.207 4.847 2.913.727 1.196-4.796c.796.216 1.568.416 2.324.604l-1.191 4.772 2.917.727 1.207-4.837c4.974.941 8.714.561 10.288-3.937 1.269-3.622-.063-5.712-2.68-7.074 1.906-.44 3.341-1.693 3.724-4.283zm-6.664 9.344c-.901 3.623-7 1.664-8.977 1.173l1.601-6.42c1.978.493 8.318 1.47 7.376 5.247zm.902-9.397c-.822 3.295-5.898 1.62-7.545 1.21l1.452-5.824c1.647.41 6.95 1.177 6.093 4.614z" fill="#FFF" fill-rule="nonzero"/><g transform="translate(67 40)" fill-rule="nonzero"><circle fill="#F60" cx="27" cy="27" r="27"/><path d="M26.95 8.834c10.099 0 18.266 8.167 18.266 18.265 0 2.03-.347 3.96-.94 5.792H38.83V17.545l-11.88 11.88-11.88-11.88v15.346H9.625c-.595-1.832-.941-3.763-.941-5.792 0-10.098 8.167-18.265 18.266-18.265zm-2.722 23.264L27 34.821l2.722-2.723 5.148-5.197v9.652h7.673c-3.168 5.248-9.009 8.762-15.592 8.762-6.584 0-12.376-3.514-15.593-8.762H19.03v-9.652l5.198 5.197z" fill="#FFF"/></g></g></svg>