<?xml version="1.0" encoding="utf-8"?><svg width="360" height="133" xmlns="http://www.w3.org/2000/svg"><g fill="none" fill-rule="evenodd"><path fill="#F4F8FA" d="M0 0h360v133H0z"/><path d="M154.398 75h-3.515l-6.844-11.227V75h-3.516V57.937h3.516l6.856 11.25v-11.25h3.503V75zm12.704-3.516h-6.165L159.767 75h-3.739l6.352-17.063h3.258L172.023 75h-3.738l-1.183-3.516zm-5.215-2.847h4.265l-2.144-6.387-2.121 6.387zm16.324-10.7l4.383 12.376 4.36-12.376h4.616V75h-3.527v-4.664l.352-8.05L183.789 75h-2.414l-4.594-12.703.352 8.039V75h-3.516V57.937h4.594zm26.695 9.668h-6.75v4.57h7.922V75h-11.437V57.937h11.414v2.848h-7.899v4.067h6.75v2.753zm16.63 1.711c-.134 1.836-.811 3.282-2.034 4.336-1.223 1.055-2.834 1.582-4.834 1.582-2.188 0-3.908-.736-5.162-2.209-1.254-1.472-1.881-3.494-1.881-6.064v-1.043c0-1.64.29-3.086.867-4.336.578-1.25 1.404-2.209 2.479-2.877 1.074-.668 2.322-1.002 3.744-1.002 1.969 0 3.555.527 4.758 1.582 1.203 1.055 1.898 2.535 2.086 4.442h-3.516c-.086-1.102-.393-1.9-.92-2.397-.527-.496-1.33-.744-2.408-.744-1.172 0-2.049.42-2.631 1.26-.582.84-.88 2.142-.897 3.908v1.289c0 1.844.28 3.191.838 4.043.559.852 1.44 1.277 2.643 1.277 1.086 0 1.896-.248 2.432-.744.535-.496.841-1.264.92-2.303h3.515zm16.323-2.46c0 1.68-.296 3.152-.89 4.417-.594 1.266-1.444 2.243-2.55 2.93-1.105.688-2.372 1.031-3.802 1.031-1.414 0-2.676-.34-3.785-1.02-1.11-.679-1.969-1.65-2.578-2.911-.61-1.262-.918-2.713-.926-4.354v-.844c0-1.68.303-3.158.908-4.435.606-1.277 1.461-2.258 2.567-2.941 1.105-.684 2.369-1.026 3.79-1.026 1.423 0 2.686.342 3.792 1.026 1.105.683 1.96 1.664 2.566 2.94.606 1.278.908 2.753.908 4.425v.761zm-3.562-.774c0-1.789-.32-3.148-.961-4.078-.64-.93-1.555-1.395-2.742-1.395-1.18 0-2.09.46-2.73 1.377-.641.918-.966 2.264-.973 4.037v.832c0 1.743.32 3.094.96 4.055.641.961 1.563 1.442 2.766 1.442 1.18 0 2.086-.463 2.719-1.39.633-.925.953-2.274.96-4.048v-.832zM244.152 75h-3.515V57.937h3.515V75zm17.133 0h-3.515l-6.844-11.227V75h-3.516V57.937h3.516l6.855 11.25v-11.25h3.504V75z" fill="#2B4269"/><path d="M88.938 63.9h7.292v3.712h-7.293v7.826h4.6c1.82 0 3.31-.237 4.47-.71 1.158-.473 2.068-1.129 2.729-1.966.66-.837 1.11-1.82 1.346-2.948.237-1.128.356-2.347.356-3.658 0-1.31-.119-2.53-.356-3.658-.237-1.128-.685-2.11-1.346-2.948-.66-.837-1.57-1.492-2.73-1.965-1.16-.473-2.649-.71-4.469-.71h-4.6V63.9zm-4.25 4.613h-2.5v-3.858h2.5V53.5H95.74c2.04 0 3.808.353 5.301 1.059 1.494.706 2.713 1.67 3.659 2.893.946 1.222 1.649 2.653 2.11 4.292.46 1.638.69 3.39.69 5.256s-.23 3.618-.69 5.256c-.461 1.639-1.164 3.07-2.11 4.292-.946 1.223-2.165 2.187-3.659 2.893-1.493.706-3.26 1.059-5.301 1.059H84.689V68.513z" fill="#FFF" fill-rule="nonzero"/><g transform="translate(67 40)" fill-rule="nonzero"><circle fill="#186C9D" cx="27" cy="27" r="27"/><path d="M32.503 39.656l.002-.003c.247.005.506-.02.773-.083 1.477-.347 2.728-1.639 3.025-3.032l5.885-22.1-4.678-.023-3.858 14.459-10.428-14.508-.007.006.005-.015-1.725-.013-.001.002a3.181 3.181 0 0 0-.774.082c-1.477.348-2.726 1.639-3.024 3.03l-5.886 22.105 4.68.02 3.856-14.457 10.43 14.509.003-.001 1.722.022zM21.377 21.272l.815-3.055 10.432 14.512-.816 3.055-10.43-14.512z" fill="#FFF"/></g></g></svg>