<?xml version="1.0" encoding="utf-8"?><svg width="360" height="133" xmlns="http://www.w3.org/2000/svg"><g fill="none" fill-rule="evenodd"><path fill="#F4F8FA" d="M0 0h360v133H0z"/><path d="M154.398 75h-3.515l-6.844-11.227V75h-3.516V57.937h3.516l6.856 11.25v-11.25h3.503V75zm17.086-8.145c0 1.68-.296 3.153-.89 4.418-.594 1.266-1.444 2.243-2.55 2.93-1.105.688-2.372 1.031-3.802 1.031-1.414 0-2.676-.34-3.785-1.02-1.11-.679-1.969-1.65-2.578-2.911-.61-1.262-.918-2.713-.926-4.354v-.844c0-1.68.303-3.158.908-4.435.606-1.277 1.461-2.258 2.567-2.941 1.105-.684 2.369-1.026 3.79-1.026 1.423 0 2.686.342 3.792 1.026 1.105.683 1.96 1.664 2.566 2.94.606 1.278.908 2.753.908 4.425v.761zm-3.562-.773c0-1.789-.32-3.148-.961-4.078-.64-.93-1.555-1.395-2.742-1.395-1.18 0-2.09.46-2.73 1.377-.641.918-.966 2.264-.973 4.037v.832c0 1.743.32 3.094.96 4.055.641.961 1.563 1.442 2.766 1.442 1.18 0 2.086-.463 2.719-1.39.633-.925.953-2.274.96-4.048v-.832zm12.422 4.688l3.867-12.832h3.914L182.184 75h-3.668l-5.918-17.063h3.902l3.844 12.833zm19.02.714h-6.165L192.027 75h-3.738l6.352-17.063h3.257L204.285 75h-3.738l-1.184-3.516zm-5.216-2.847h4.266l-2.144-6.387-2.122 6.387zm25.125.68c-.132 1.835-.81 3.28-2.033 4.335-1.222 1.055-2.834 1.582-4.834 1.582-2.187 0-3.908-.736-5.162-2.209-1.254-1.472-1.88-3.494-1.88-6.064v-1.043c0-1.64.288-3.086.866-4.336.579-1.25 1.405-2.209 2.479-2.877 1.074-.668 2.322-1.002 3.744-1.002 1.969 0 3.555.527 4.758 1.582 1.203 1.055 1.898 2.535 2.086 4.442h-3.516c-.086-1.102-.392-1.9-.92-2.397-.527-.496-1.33-.744-2.408-.744-1.172 0-2.049.42-2.63 1.26-.583.84-.882 2.142-.897 3.908v1.289c0 1.844.28 3.191.838 4.043.558.852 1.44 1.277 2.642 1.277 1.086 0 1.897-.248 2.432-.744.535-.496.842-1.264.92-2.303h3.515zm16.325-2.462c0 1.68-.297 3.153-.891 4.418-.594 1.266-1.443 2.243-2.549 2.93-1.105.688-2.373 1.031-3.803 1.031-1.414 0-2.675-.34-3.785-1.02-1.11-.679-1.968-1.65-2.578-2.911-.61-1.262-.918-2.713-.926-4.354v-.844c0-1.68.303-3.158.909-4.435.605-1.277 1.46-2.258 2.566-2.941 1.105-.684 2.37-1.026 3.791-1.026 1.422 0 2.686.342 3.791 1.026 1.106.683 1.961 1.664 2.566 2.94.606 1.278.909 2.753.909 4.425v.761zm-3.563-.773c0-1.789-.32-3.148-.96-4.078-.641-.93-1.555-1.395-2.743-1.395-1.18 0-2.09.46-2.73 1.377-.641.918-.965 2.264-.973 4.037v.832c0 1.743.32 3.094.96 4.055.641.961 1.563 1.442 2.766 1.442 1.18 0 2.086-.463 2.72-1.39.632-.925.952-2.274.96-4.048v-.832zM241.891 75h-3.516V57.937h3.516V75zm17.132 0h-3.515l-6.844-11.227V75h-3.516V57.937h3.516l6.856 11.25v-11.25h3.503V75z" fill="#2B4269"/><path d="M88.938 63.9h7.292v3.712h-7.293v7.826h4.6c1.82 0 3.31-.237 4.47-.71 1.158-.473 2.068-1.129 2.729-1.966.66-.837 1.11-1.82 1.346-2.948.237-1.128.356-2.347.356-3.658 0-1.31-.119-2.53-.356-3.658-.237-1.128-.685-2.11-1.346-2.948-.66-.837-1.57-1.492-2.73-1.965-1.16-.473-2.649-.71-4.469-.71h-4.6V63.9zm-4.25 4.613h-2.5v-3.858h2.5V53.5H95.74c2.04 0 3.808.353 5.301 1.059 1.494.706 2.713 1.67 3.659 2.893.946 1.222 1.649 2.653 2.11 4.292.46 1.638.69 3.39.69 5.256s-.23 3.618-.69 5.256c-.461 1.639-1.164 3.07-2.11 4.292-.946 1.223-2.165 2.187-3.659 2.893-1.493.706-3.26 1.059-5.301 1.059H84.689V68.513z" fill="#FFF" fill-rule="nonzero"/><g transform="translate(67 40)" fill-rule="nonzero"><circle fill="#FFD81B" cx="27" cy="27" r="27"/><path d="M40.5 26.26c0 7.465-5.78 10.003-10.647 10.003v1.946h3.754v2.635h-3.754v3.031h-5.871v-3.03h-3.59v-2.636h3.582v-1.971c-1.557 0-10.474-.37-10.474-10.52V13.5h5.83v12.687c0 5.296 4.668 5.247 4.668 5.247V13.5h5.855v17.934s4.817.27 4.817-5.32V13.5h5.83v12.76z" fill="#FFF"/></g></g></svg>