<?xml version="1.0" encoding="utf-8"?><svg width="360" height="133" xmlns="http://www.w3.org/2000/svg"><g fill="none" fill-rule="evenodd"><path fill="#F4F8FA" d="M0 0h360v133H0z"/><path d="M144.04 68.988V75h-3.517V57.937h6.657c1.28 0 2.408.235 3.38.704.973.468 1.721 1.134 2.245 1.998.523.863.785 1.845.785 2.947 0 1.672-.572 2.99-1.717 3.955-1.144.965-2.728 1.447-4.752 1.447h-3.082zm0-2.847h3.14c.93 0 1.638-.22 2.127-.657.488-.437.732-1.062.732-1.875 0-.836-.246-1.511-.738-2.027-.492-.516-1.172-.781-2.04-.797h-3.222v5.356zm22.23 1.464h-6.75v4.57h7.921V75h-11.437V57.937h11.414v2.848h-7.898v4.067h6.75v2.753zm13.5 0h-6.75v4.57h7.921V75h-11.437V57.937h11.414v2.848h-7.898v4.067h6.75v2.753zm9.55 1.149h-2.8V75h-3.516V57.937h6.34c2.015 0 3.57.45 4.664 1.348 1.094.899 1.64 2.168 1.64 3.809 0 1.164-.252 2.135-.755 2.912-.504.777-1.268 1.396-2.291 1.857l3.691 6.973V75h-3.773l-3.2-6.246zm-2.8-2.848h2.835c.883 0 1.567-.224 2.051-.674.485-.449.727-1.068.727-1.857 0-.805-.229-1.437-.686-1.898-.457-.461-1.158-.692-2.103-.692h-2.824v5.121zm25.195 3.41c-.133 1.836-.81 3.282-2.033 4.336-1.223 1.055-2.834 1.582-4.834 1.582-2.188 0-3.909-.736-5.162-2.209-1.254-1.472-1.881-3.494-1.881-6.064v-1.043c0-1.64.289-3.086.867-4.336.578-1.25 1.404-2.209 2.478-2.877 1.075-.668 2.323-1.002 3.745-1.002 1.968 0 3.554.527 4.757 1.582 1.203 1.055 1.899 2.535 2.086 4.442h-3.515c-.086-1.102-.393-1.9-.92-2.397-.528-.496-1.33-.744-2.408-.744-1.172 0-2.05.42-2.631 1.26-.582.84-.881 2.142-.897 3.908v1.289c0 1.844.28 3.191.838 4.043.559.852 1.44 1.277 2.643 1.277 1.086 0 1.896-.248 2.431-.744.535-.496.842-1.264.92-2.303h3.516zm16.324-2.46c0 1.68-.297 3.152-.89 4.417-.594 1.266-1.444 2.243-2.55 2.93-1.105.688-2.372 1.031-3.802 1.031-1.414 0-2.676-.34-3.785-1.02-1.11-.679-1.969-1.65-2.578-2.911-.61-1.262-.918-2.713-.926-4.354v-.844c0-1.68.303-3.158.908-4.435.605-1.277 1.46-2.258 2.566-2.941 1.106-.684 2.37-1.026 3.791-1.026 1.422 0 2.686.342 3.791 1.026 1.106.683 1.961 1.664 2.567 2.94.605 1.278.908 2.753.908 4.425v.761zm-3.562-.774c0-1.789-.32-3.148-.961-4.078-.641-.93-1.555-1.395-2.743-1.395-1.18 0-2.09.46-2.73 1.377-.64.918-.965 2.264-.973 4.037v.832c0 1.743.32 3.094.961 4.055.64.961 1.563 1.442 2.766 1.442 1.18 0 2.086-.463 2.719-1.39.632-.925.953-2.274.96-4.048v-.832zM234.332 75h-3.516V57.937h3.516V75zm17.133 0h-3.516l-6.844-11.227V75h-3.515V57.937h3.515l6.856 11.25v-11.25h3.504V75z" fill="#2B4269"/><g transform="translate(67 40)" fill-rule="nonzero"><circle fill="#3CB054" cx="27" cy="27" r="27"/><path d="M15.188 12.656c20.406.755 28.276 13.003 24.325 23.934-1.12 3.042-2.308 4.707-4.81 6.441.102-.438.207-.879.286-1.327 1.48-8.528-1.324-18.79-15.038-24.458 10.911 6.494 15.315 18.048 10.226 25.507-8.66 1.361-14.99-6.035-14.99-14.557v-15.54z" fill="#FFF"/></g></g></svg>