<?xml version="1.0" encoding="utf-8"?><svg width="360" height="133" xmlns="http://www.w3.org/2000/svg"><g fill="none" fill-rule="evenodd"><path fill="#F4F8FA" d="M0 0h360v133H0z"/><path d="M146.828 70.77l3.867-12.832h3.914L148.668 75H145l-5.918-17.063h3.902l3.844 12.833zm19.652-3.165h-6.75v4.57h7.922V75h-11.437V57.937h11.414v2.848h-7.899v4.067h6.75v2.753zm9.551 1.149h-2.8V75h-3.516V57.937h6.34c2.015 0 3.57.45 4.664 1.348 1.094.899 1.64 2.168 1.64 3.809 0 1.164-.252 2.135-.755 2.912-.504.777-1.268 1.396-2.292 1.857l3.692 6.973V75h-3.774l-3.199-6.246zm-2.8-2.848h2.835c.883 0 1.567-.224 2.051-.674.485-.449.727-1.068.727-1.857 0-.805-.229-1.437-.686-1.898-.457-.461-1.158-.692-2.103-.692h-2.825v5.121zM188.77 75h-3.516V57.937h3.516V75zm16.652-5.684c-.133 1.836-.81 3.282-2.033 4.336-1.223 1.055-2.834 1.582-4.834 1.582-2.188 0-3.909-.736-5.162-2.209-1.254-1.472-1.881-3.494-1.881-6.064v-1.043c0-1.64.289-3.086.867-4.336.578-1.25 1.404-2.209 2.478-2.877 1.075-.668 2.323-1.002 3.745-1.002 1.968 0 3.554.527 4.757 1.582 1.204 1.055 1.899 2.535 2.086 4.442h-3.515c-.086-1.102-.393-1.9-.92-2.397-.528-.496-1.33-.744-2.408-.744-1.172 0-2.05.42-2.631 1.26-.582.84-.881 2.142-.897 3.908v1.289c0 1.844.28 3.191.838 4.043.559.852 1.44 1.277 2.643 1.277 1.086 0 1.896-.248 2.431-.744.535-.496.842-1.264.92-2.303h3.516zm16.324-2.46c0 1.68-.297 3.152-.89 4.417-.594 1.266-1.444 2.243-2.55 2.93-1.105.688-2.372 1.031-3.802 1.031-1.414 0-2.676-.34-3.785-1.02-1.11-.679-1.969-1.65-2.578-2.911-.61-1.262-.918-2.713-.926-4.354v-.844c0-1.68.303-3.158.908-4.435.606-1.277 1.461-2.258 2.566-2.941 1.106-.684 2.37-1.026 3.791-1.026 1.422 0 2.686.342 3.791 1.026 1.106.683 1.961 1.664 2.567 2.94.605 1.278.908 2.753.908 4.425v.761zm-3.562-.774c0-1.789-.32-3.148-.961-4.078-.641-.93-1.555-1.395-2.743-1.395-1.18 0-2.09.46-2.73 1.377-.64.918-.965 2.264-.973 4.037v.832c0 1.743.32 3.094.961 4.055.64.961 1.563 1.442 2.766 1.442 1.18 0 2.086-.463 2.719-1.39.632-.925.953-2.274.96-4.048v-.832zM228.039 75h-3.516V57.937h3.516V75zm17.133 0h-3.516l-6.844-11.227V75h-3.515V57.937h3.516l6.855 11.25v-11.25h3.504V75z" fill="#2B4269"/><g transform="translate(67 40)" fill-rule="nonzero"><circle fill="#418BCA" cx="27" cy="27" r="27"/><path d="M34.197 13.5h7.99L27 43.875 11.812 13.5h7.938l7.303 15.378L34.197 13.5zM27 21.868c-1.33 0-2.408-1.107-2.408-2.472 0-1.366 1.078-2.473 2.408-2.473 1.33 0 2.408 1.107 2.408 2.473 0 1.365-1.079 2.472-2.408 2.472zm10.91 6.82c1.33 0 2.407 1.106 2.407 2.471 0 1.366-1.078 2.473-2.408 2.473-1.329 0-2.408-1.107-2.408-2.473 0-1.365 1.079-2.472 2.408-2.472z" fill="#FFF"/></g></g></svg>