<?xml version="1.0" encoding="utf-8"?><svg width="360" height="133" xmlns="http://www.w3.org/2000/svg"><g fill="none" fill-rule="evenodd"><path fill="#F4F8FA" d="M0 0h360v133H0z"/><path d="M146.828 70.77l3.867-12.832h3.914L148.668 75H145l-5.918-17.063h3.902l3.844 12.833zm19.652-3.165h-6.75v4.57h7.922V75h-11.437V57.937h11.414v2.848h-7.899v4.067h6.75v2.753zm9.551 1.149h-2.8V75h-3.516V57.937h6.34c2.015 0 3.57.45 4.664 1.348 1.094.899 1.64 2.168 1.64 3.809 0 1.164-.252 2.135-.755 2.912-.504.777-1.268 1.396-2.292 1.857l3.692 6.973V75h-3.774l-3.199-6.246zm-2.8-2.848h2.835c.883 0 1.567-.224 2.051-.674.485-.449.727-1.068.727-1.857 0-.805-.229-1.437-.686-1.898-.457-.461-1.158-.692-2.103-.692h-2.825v5.121zm24.644-5.12h-5.227V75h-3.515V60.785h-5.156v-2.847h13.898v2.847zm15.398 8.53c-.132 1.836-.81 3.282-2.033 4.336-1.222 1.055-2.834 1.582-4.834 1.582-2.187 0-3.908-.736-5.162-2.209-1.254-1.472-1.88-3.494-1.88-6.064v-1.043c0-1.64.288-3.086.866-4.336.579-1.25 1.405-2.209 2.479-2.877 1.074-.668 2.322-1.002 3.744-1.002 1.969 0 3.555.527 4.758 1.582 1.203 1.055 1.898 2.535 2.086 4.442h-3.516c-.086-1.102-.392-1.9-.92-2.397-.527-.496-1.33-.744-2.408-.744-1.172 0-2.049.42-2.63 1.26-.583.84-.882 2.142-.897 3.908v1.289c0 1.844.28 3.191.838 4.043.558.852 1.44 1.277 2.642 1.277 1.086 0 1.897-.248 2.432-.744.535-.496.842-1.264.92-2.303h3.515zm16.325-2.46c0 1.68-.297 3.152-.891 4.417-.594 1.266-1.443 2.243-2.549 2.93-1.105.688-2.373 1.031-3.803 1.031-1.414 0-2.675-.34-3.785-1.02-1.11-.679-1.968-1.65-2.578-2.911-.61-1.262-.918-2.713-.926-4.354v-.844c0-1.68.303-3.158.909-4.435.605-1.277 1.46-2.258 2.566-2.941 1.105-.684 2.37-1.026 3.791-1.026 1.422 0 2.686.342 3.791 1.026 1.106.683 1.961 1.664 2.566 2.94.606 1.278.909 2.753.909 4.425v.761zm-3.563-.774c0-1.789-.32-3.148-.96-4.078-.641-.93-1.555-1.395-2.743-1.395-1.18 0-2.09.46-2.73 1.377-.641.918-.965 2.264-.973 4.037v.832c0 1.743.32 3.094.96 4.055.641.961 1.563 1.442 2.766 1.442 1.18 0 2.086-.463 2.72-1.39.632-.925.952-2.274.96-4.048v-.832zM235.891 75h-3.516V57.937h3.516V75zm17.132 0h-3.515l-6.844-11.227V75h-3.516V57.937h3.516l6.856 11.25v-11.25h3.503V75z" fill="#2B4269"/><g transform="translate(67 40)" fill-rule="nonzero"><circle fill="#35633E" cx="27" cy="27" r="27"/><path d="M13.217 29.502l.003-.002-3.533-4.997h9.938l5.112 6.908-4.903 7.11-6.617-9.019zm-3.172-1.595H6.75l1.771-2.154 1.524 2.154zM20.882 39.95l7.08-10.268L43.866 6.75a27.07 27.07 0 0 1 5.072 6.302l-.017.293-21.95 31.576a1.48 1.48 0 0 1-2.418.031l-3.671-5.003z" fill="#FFF"/></g></g></svg>