<?xml version="1.0" encoding="utf-8"?><svg width="162" height="58" xmlns="http://www.w3.org/2000/svg"><g fill="#FFF" fill-rule="evenodd"><path d="M144.058 15.312c-1.07 0-1.52.971-1.59 1.675h3.011c.014-.634-.268-1.675-1.421-1.675zm-67.31 3.757c0 .675.437.985.984.985a1.42 1.42 0 0 0 1.366-.943c.042-.126.042-.253.042-.38v-.942c-1.224-.014-2.392.239-2.392 1.28zm33.303-3.687c-1.225 0-1.717 1.196-1.717 2.336 0 1.323.661 2.322 1.703 2.322.984 0 1.674-.957 1.674-2.35 0-1.069-.479-2.308-1.66-2.308zm-11.627-.07c-1.069 0-1.52.971-1.59 1.675h3.011c.013-.634-.268-1.675-1.421-1.675zm-12.457.169c-.703 0-1.351.507-1.533 1.266-.03.127-.058.281-.058.451v1.111c0 .141.015.282.043.409.183.702.788 1.209 1.533 1.209 1.084 0 1.745-.858 1.745-2.25 0-1.211-.577-2.196-1.73-2.196zm61.1 22.377h-8.87c.035 1.313.464 2.313 1.288 3.005.746.622 1.712.933 2.9.933 1.316 0 2.508-.209 3.586-.635l.465 2.056c-1.254.551-2.745.819-4.464.819-2.058 0-3.678-.603-4.855-1.816-1.176-1.213-1.769-2.842-1.769-4.884 0-2.011.55-3.677 1.642-5.015 1.155-1.422 2.706-2.132 4.655-2.132 1.922 0 3.371.71 4.353 2.132.782 1.135 1.177 2.532 1.177 4.194 0 .525-.038.972-.108 1.343zm-12.201-20.83v4.109h-1.729v-9.989h1.729v4.066h.029c.21-.323.506-.591.858-.774.351-.197.76-.31 1.196-.31 1.168 0 2.393.774 2.393 2.969v4.038h-1.732v-3.855c0-.985-.366-1.745-1.322-1.745-.676 0-1.154.451-1.35.971a1.537 1.537 0 0 0-.072.52zm-.448 16.061a5.234 5.234 0 0 0-.931-.075c-1.04 0-1.841.392-2.408 1.174-.494.696-.739 1.559-.739 2.625v6.98h-2.956v-9.119c0-1.525-.027-2.921-.079-4.185h2.572l.11 2.547h.081c.309-.873.799-1.578 1.478-2.103a3.544 3.544 0 0 1 2.138-.71c.271 0 .519.014.734.049v2.817zm-7.588-18.804h.971v-1.281l1.703-.478v1.759h1.645v1.294h-1.645v3.025c0 .845.225 1.267.886 1.267.309 0 .478-.015.675-.07l.029 1.308c-.254.098-.718.183-1.252.183-.648 0-1.169-.211-1.492-.563-.38-.394-.549-1.027-.549-1.927v-3.223h-.971v-1.294zm-3.055 27.788c-1.226 1.347-2.85 2.021-4.871 2.021-1.956 0-3.516-.647-4.674-1.943-1.157-1.293-1.734-2.932-1.734-4.9 0-2.061.596-3.75 1.791-5.063 1.197-1.318 2.803-1.966 4.828-1.966 1.96 0 3.528.641 4.714 1.943 1.128 1.252 1.694 2.881 1.694 4.868 0 2.05-.58 3.722-1.748 5.04zM109.98 21.292c-1.927 0-3.433-1.323-3.433-3.531 0-2.252 1.477-3.631 3.546-3.631 2.04 0 3.405 1.436 3.405 3.518 0 2.519-1.773 3.644-3.518 3.644zm1.667 11.412h-3.262v6.467c0 1.64.579 2.455 1.729 2.455.529 0 .963-.039 1.313-.129l.084 2.239c-.585.219-1.35.329-2.299.329-1.162 0-2.081-.35-2.736-1.067-.663-.708-.99-1.905-.99-3.584v-6.71h-1.941v-2.215h1.941v-2.435l2.899-.875v3.31h3.262v2.215zm-10.421 9.746c-1.207 1.078-2.88 1.613-5.027 1.613-1.989 0-3.58-.384-4.781-1.147l.687-2.463a8.247 8.247 0 0 0 4.264 1.149c1.118 0 1.983-.253 2.604-.752.617-.5.927-1.169.927-2.019 0-.738-.255-1.368-.763-1.882-.516-.511-1.358-.981-2.545-1.423-3.227-1.201-4.843-2.963-4.843-5.279 0-1.515.564-2.758 1.706-3.726 1.141-.964 2.65-1.449 4.532-1.449 1.678 0 3.075.294 4.19.874l-.746 2.409c-1.04-.563-2.222-.849-3.54-.849-1.042 0-1.86.264-2.448.763-.491.463-.738 1.02-.738 1.675 0 .725.283 1.329.848 1.811.494.435 1.388.908 2.679 1.418 1.593.634 2.757 1.386 3.508 2.247.746.857 1.122 1.923 1.122 3.198 0 1.57-.549 2.852-1.636 3.832zM86.347 21.292c-.887 0-1.675-.337-2.167-1.182h-.029l-.084 1.027H82.59c.028-.464.057-1.224.057-1.928v-8.061h1.729v4.079h.028c.422-.661 1.168-1.097 2.196-1.097 1.674 0 2.87 1.393 2.856 3.475 0 2.463-1.561 3.687-3.109 3.687zm-2.031 21.055c-1.101 1.163-2.465 1.747-4.1 1.747-1.761 0-3.027-.628-3.795-1.892v6.986h-2.957V34.861c0-1.423-.038-2.878-.109-4.372h2.593l.171 2.108h.051c.992-1.582 2.483-2.375 4.49-2.375 1.57 0 2.88.615 3.929 1.859 1.052 1.238 1.575 2.875 1.575 4.898 0 2.27-.614 4.051-1.848 5.368zm-13.268-21.21h1.73v-9.989h-1.73v9.989zm-1.347 21.21c-1.098 1.163-2.469 1.747-4.099 1.747-1.766 0-3.03-.628-3.798-1.892v6.986H58.85V34.861c0-1.423-.038-2.878-.114-4.372h2.601l.163 2.108h.052c.99-1.582 2.484-2.375 4.494-2.375 1.569 0 2.875.615 3.931 1.859 1.045 1.238 1.572 2.875 1.572 4.898 0 2.27-.614 4.051-1.848 5.368zM58.127 19.252c0-1.717 1.533-2.603 4.066-2.589v-.113c0-.45-.183-1.196-1.393-1.196-.676 0-1.378.212-1.843.507l-.338-1.126c.506-.309 1.393-.605 2.477-.605 2.194 0 2.828 1.393 2.828 2.898v2.463c0 .619.027 1.224.112 1.646h-1.562l-.126-.759h-.042c-.409.534-1.126.914-2.027.914-1.379 0-2.152-.999-2.152-2.04zm-3.563 1.885h-1.703l-2.547-6.852h1.873l1.11 3.476c.197.605.338 1.153.465 1.716h.043c.126-.563.281-1.098.464-1.716l1.097-3.476h1.816l-2.618 6.852zm-.671 22.656l-1.723-5.415h-5.996l-1.645 5.415h-3.062l5.934-18.448h3.672l5.97 18.448h-3.15zM33.004 43.1a3.032 3.032 0 0 1-3.032 3.025H16.977a3.033 3.033 0 0 1-3.035-3.025V14.222a3.037 3.037 0 0 1 3.035-3.029h12.995a3.035 3.035 0 0 1 3.032 3.029V43.1zm11.524-31.446h2.209l3.081 9.483h-1.871l-.857-2.687h-2.998l-.817 2.687h-1.787l3.04-9.483zm22.073 9.483h1.729v-6.852h-1.729v6.852zm.872-9.708c.59 0 .957.408.97.942 0 .507-.38.929-.985.929-.577 0-.956-.422-.956-.929 0-.534.394-.942.971-.942zm10.232 3.925c-.676 0-1.379.212-1.843.507l-.338-1.126c.506-.309 1.393-.605 2.476-.605 2.195 0 2.829 1.393 2.829 2.898v2.463c0 .619.027 1.224.111 1.646h-1.561l-.126-.759h-.042c-.408.534-1.126.914-2.026.914-1.38 0-2.154-.999-2.154-2.04 0-1.717 1.533-2.603 4.067-2.589v-.113c0-.45-.184-1.196-1.393-1.196zm13.725 5.783h1.729v-9.989H91.43v9.989zm7.092-7.007c2.223 0 2.956 1.829 2.956 3.335 0 .324-.029.577-.057.732h-4.587c.042 1.237.999 1.772 2.11 1.772.802 0 1.365-.126 1.9-.309l.253 1.182c-.591.253-1.407.436-2.392.436-2.223 0-3.531-1.365-3.531-3.461 0-1.9 1.153-3.687 3.348-3.687zm18.173.155l.084 1.027h.043c.309-.535 1.055-1.182 2.195-1.182 1.196 0 2.434.774 2.434 2.941v4.066h-1.73v-3.87c0-.984-.367-1.73-1.309-1.73-.689 0-1.168.493-1.352 1.013a1.617 1.617 0 0 0-.084.549v4.038h-1.73v-4.811c0-.789-.028-1.45-.057-2.041h1.506zm27.461-.155c2.223 0 2.955 1.829 2.955 3.335 0 .324-.028.577-.056.732h-4.587c.042 1.237.999 1.772 2.11 1.772.802 0 1.365-.126 1.899-.309l.253 1.182c-.59.253-1.406.436-2.391.436-2.223 0-3.531-1.365-3.531-3.461 0-1.9 1.153-3.687 3.348-3.687zm-98.093.676c-.184-.578-.338-1.225-.479-1.773h-.029c-.14.548-.295 1.21-.45 1.773l-.731 2.336h2.434l-.745-2.336zm16.13 4.305c.041-.126.041-.253.041-.38v-.942c-1.223-.014-2.39.239-2.39 1.28 0 .675.435.985.984.985.703 0 1.195-.45 1.365-.943zm79.234 13.128c-.965 0-1.749.412-2.354 1.21-.492.637-.787 1.404-.876 2.294h6.158c.016-.873-.171-1.627-.572-2.269-.513-.818-1.3-1.235-2.356-1.235zm-92.271-4.43h-.051c-.186.784-.474 1.941-.879 3.476l-1.534 4.818h4.954l-1.554-4.818c-.168-.495-.482-1.654-.936-3.476zm30.547 4.758c-.732 0-1.387.241-1.982.724a3.406 3.406 0 0 0-1.166 1.909 3.877 3.877 0 0 0-.134.904v2.215c0 .969.292 1.787.888 2.453.591.661 1.364.995 2.308.995 1.119 0 1.985-.425 2.606-1.286.622-.857.933-1.988.933-3.397 0-1.292-.294-2.361-.876-3.198-.643-.872-1.502-1.319-2.577-1.319zm39.304-.183c-1.183 0-2.087.525-2.704 1.582-.535.87-.797 1.931-.797 3.188 0 1.224.262 2.268.797 3.14.632 1.055 1.527 1.58 2.682 1.58 1.124 0 2.013-.532 2.648-1.613.551-.883.826-1.942.826-3.159 0-1.216-.264-2.266-.79-3.136-.629-1.057-1.511-1.582-2.662-1.582zm-53.923.183c-.729 0-1.387.241-1.981.724-.595.49-.981 1.124-1.165 1.909a3.987 3.987 0 0 0-.134.904v2.215c0 .969.291 1.787.887 2.453.592.661 1.365.995 2.312.995 1.11 0 1.983-.425 2.602-1.286.621-.857.928-1.988.928-3.397 0-1.292-.288-2.361-.873-3.198-.641-.872-1.498-1.319-2.576-1.319zm-49.299 7.468h15.376V17.294H15.785v22.741zm7.687 1.343a1.57 1.57 0 0 0 0 3.137 1.568 1.568 0 0 0 0-3.137zm-1.506-26.403h3.013a.359.359 0 0 0 .358-.352.36.36 0 0 0-.358-.36h-3.013a.36.36 0 0 0-.356.36.36.36 0 0 0 .356.352z"/><path d="M7.724 2A5.73 5.73 0 0 0 2 7.724v41.863c0 3.151 2.567 5.715 5.724 5.715h145.671c3.156 0 5.724-2.564 5.724-5.715V7.724A5.73 5.73 0 0 0 153.395 2H7.724zm145.671 55.302H7.724C3.465 57.302 0 53.841 0 49.587V7.724C0 3.465 3.465 0 7.724 0h145.671c4.259 0 7.724 3.465 7.724 7.724v41.863c0 4.254-3.465 7.715-7.724 7.715z"/></g></svg>