<?xml version="1.0" encoding="utf-8"?><svg width="199" height="29" xmlns="http://www.w3.org/2000/svg"><g fill="#FFF" fill-rule="evenodd"><path d="M15.454 13.263c0-2.087-1.69-3.79-3.762-3.79s-3.762 1.703-3.762 3.79c0 2.087 1.69 3.79 3.762 3.79s3.762-1.703 3.762-3.79zm1.881 0c0 3.138-2.527 5.684-5.643 5.684-3.115 0-5.643-2.546-5.643-5.684 0-3.138 2.528-5.684 5.643-5.684 3.116 0 5.643 2.546 5.643 5.684zm1.881 0c0-4.189-3.365-7.579-7.524-7.579s-7.524 3.39-7.524 7.58c0 4.188 3.365 7.578 7.524 7.578 4.16 0 7.524-3.39 7.524-7.579zm1.881 0c0 5.225-4.217 9.474-9.405 9.474-5.187 0-9.405-4.249-9.405-9.474 0-5.225 4.218-9.474 9.405-9.474 5.188 0 9.405 4.249 9.405 9.474zm1.881 0c0-6.276-5.055-11.368-11.286-11.368C5.462 1.895.406 6.987.406 13.263c0 6.276 5.055 11.369 11.286 11.369s11.286-5.093 11.286-11.369zM34.297 23.285c-1.234-.02-2.236-.152-3.005-.399-.769-.247-1.376-.593-1.823-1.04a3.449 3.449 0 0 1-.911-1.623c-.161-.636-.242-1.353-.242-2.15V1.583l4.243-.684v16.32c0 .38.029.721.086 1.025.057.304.166.56.327.769.162.209.394.38.698.512.304.133.712.219 1.225.257l-.598 3.503zm2.307-7.661c0-1.33.204-2.492.612-3.49.408-.996.945-1.827 1.61-2.491a6.694 6.694 0 0 1 2.292-1.51 7.178 7.178 0 0 1 2.663-.512c2.126 0 3.807.65 5.04 1.95 1.235 1.301 1.852 3.214 1.852 5.74 0 .246-.01.517-.028.811-.02.294-.038.555-.057.783H40.96c.095.874.503 1.567 1.225 2.08.721.512 1.69.768 2.905.768.778 0 1.543-.071 2.293-.213.75-.143 1.362-.318 1.836-.527l.57 3.446a5.86 5.86 0 0 1-.911.342c-.38.114-.802.213-1.268.299-.465.085-.963.156-1.495.213a14.96 14.96 0 0 1-1.595.086c-1.348 0-2.52-.2-3.517-.598-.997-.4-1.823-.945-2.478-1.638a6.5 6.5 0 0 1-1.452-2.464 9.759 9.759 0 0 1-.47-3.075zM46.572 14a4.38 4.38 0 0 0-.185-1.054 2.631 2.631 0 0 0-.484-.91 2.578 2.578 0 0 0-.826-.656c-.333-.17-.746-.256-1.24-.256-.474 0-.882.08-1.224.242a2.53 2.53 0 0 0-.854.64 2.867 2.867 0 0 0-.527.926 6.074 6.074 0 0 0-.27 1.068h5.61zm13.1 6.038c.418 0 .817-.01 1.197-.028.38-.02.683-.048.911-.086v-3.218a7.835 7.835 0 0 0-.769-.114 8.41 8.41 0 0 0-2.065.014c-.35.048-.66.138-.925.27a1.588 1.588 0 0 0-.627.542c-.152.228-.228.512-.228.854 0 .665.224 1.125.67 1.382.446.256 1.058.384 1.837.384zm-.341-12.417c1.253 0 2.297.142 3.133.427.835.285 1.505.693 2.008 1.224.503.532.859 1.178 1.068 1.937.209.76.313 1.605.313 2.535v8.829c-.608.133-1.452.29-2.535.47-1.082.18-2.392.27-3.93.27a12.46 12.46 0 0 1-2.634-.256c-.788-.17-1.467-.451-2.037-.84a3.845 3.845 0 0 1-1.31-1.524c-.304-.626-.456-1.395-.456-2.307 0-.873.176-1.614.527-2.221a4.055 4.055 0 0 1 1.41-1.453 6.37 6.37 0 0 1 2.022-.783c.76-.161 1.548-.242 2.364-.242.55 0 1.04.024 1.467.071.427.048.773.11 1.04.185v-.398c0-.722-.219-1.301-.656-1.738-.436-.436-1.196-.655-2.278-.655-.722 0-1.434.052-2.136.157a9.163 9.163 0 0 0-1.823.441l-.541-3.417a16.32 16.32 0 0 1 2.136-.47c.437-.067.897-.124 1.381-.171.484-.048.973-.071 1.467-.071zm13.984 7.775c0 1.31.294 2.364.883 3.161.588.798 1.462 1.196 2.62 1.196.38 0 .73-.014 1.054-.042.322-.029.588-.062.797-.1v-7.718c-.266-.171-.612-.314-1.04-.428a5.009 5.009 0 0 0-1.295-.17c-2.013 0-3.02 1.367-3.02 4.1zm9.598 7.12c-.38.114-.817.223-1.31.327-.494.105-1.011.195-1.553.27-.54.077-1.091.139-1.651.186a19.08 19.08 0 0 1-1.61.071c-1.234 0-2.335-.18-3.303-.54-.969-.362-1.785-.879-2.45-1.553-.664-.674-1.172-1.49-1.523-2.45-.352-.958-.527-2.036-.527-3.232 0-1.215.152-2.312.456-3.29.303-.977.74-1.808 1.31-2.491a5.608 5.608 0 0 1 2.093-1.567c.826-.36 1.77-.54 2.834-.54.588 0 1.115.056 1.58.17.466.114.935.275 1.41.484V1.583l4.244-.684v21.617zm7.692.484h-2.648V8.19h2.648V23zM89.267 5.513a1.7 1.7 0 0 1-1.21-.47c-.333-.313-.499-.736-.499-1.267 0-.532.166-.954.499-1.268a1.7 1.7 0 0 1 1.21-.47 1.7 1.7 0 0 1 1.21.47c.333.314.499.736.499 1.268 0 .531-.166.954-.499 1.267a1.7 1.7 0 0 1-1.21.47zm6.335 3.104a33.62 33.62 0 0 1 2.421-.484c1.006-.17 2.165-.256 3.475-.256 1.177 0 2.155.166 2.933.498.779.333 1.4.798 1.866 1.396.465.598.792 1.315.982 2.15.19.836.285 1.756.285 2.763V23h-2.649v-7.747c0-.911-.061-1.69-.185-2.335-.123-.646-.327-1.168-.612-1.566a2.423 2.423 0 0 0-1.14-.87c-.474-.18-1.063-.27-1.765-.27-.285 0-.58.01-.883.029a21.47 21.47 0 0 0-.869.071 10.91 10.91 0 0 0-.74.1c-.218.038-.375.066-.47.085V23h-2.649V8.617zm14.367 19.709c-.228 0-.522-.029-.883-.086a4.545 4.545 0 0 1-.911-.227l.342-2.165c.19.057.408.104.655.142.247.038.474.057.683.057.912 0 1.562-.28 1.951-.84.39-.56.584-1.381.584-2.463V8.19h2.649v14.525c0 1.899-.432 3.309-1.296 4.23-.864.92-2.122 1.38-3.774 1.38zM113.7 5.513a1.7 1.7 0 0 1-1.21-.47c-.333-.313-.499-.736-.499-1.267 0-.532.166-.954.499-1.268a1.7 1.7 0 0 1 1.21-.47 1.7 1.7 0 0 1 1.21.47c.333.314.499.736.499 1.268 0 .531-.166.954-.498 1.267a1.7 1.7 0 0 1-1.21.47zm5.51 10.11c0-1.31.19-2.453.57-3.431.379-.978.882-1.79 1.509-2.435a6.129 6.129 0 0 1 2.164-1.453 6.761 6.761 0 0 1 2.506-.484c1.994 0 3.523.622 4.586 1.865 1.063 1.244 1.595 3.138 1.595 5.682v.442c0 .18-.01.346-.029.498h-10.139c.114 1.538.56 2.706 1.339 3.503.778.798 1.993 1.196 3.645 1.196.93 0 1.714-.08 2.35-.242.636-.161 1.115-.318 1.438-.47l.37 2.222c-.322.17-.887.351-1.694.541-.807.19-1.723.285-2.748.285-1.292 0-2.407-.195-3.347-.584-.94-.39-1.713-.926-2.321-1.61a6.566 6.566 0 0 1-1.353-2.434c-.294-.94-.441-1.97-.441-3.09zm10.167-1.452c.02-1.196-.28-2.179-.897-2.948-.617-.769-1.467-1.153-2.549-1.153-.608 0-1.144.119-1.61.356-.464.237-.858.546-1.181.926a4.26 4.26 0 0 0-.755 1.31c-.18.493-.299.996-.356 1.51h7.348zm13.456 9.17c-1.197 0-2.246-.19-3.147-.569a6.33 6.33 0 0 1-2.279-1.595 6.62 6.62 0 0 1-1.381-2.435c-.304-.94-.456-1.98-.456-3.118 0-1.14.166-2.184.499-3.133.332-.95.802-1.77 1.41-2.464a6.319 6.319 0 0 1 2.235-1.623c.883-.39 1.866-.584 2.948-.584.664 0 1.329.057 1.993.17a9.17 9.17 0 0 1 1.909.542l-.599 2.25a6.371 6.371 0 0 0-1.38-.456 7.803 7.803 0 0 0-1.667-.17c-1.48 0-2.615.465-3.403 1.395-.788.93-1.182 2.288-1.182 4.073 0 .797.09 1.528.27 2.193.18.664.465 1.234.855 1.708.389.475.887.84 1.495 1.097.608.256 1.348.384 2.221.384.703 0 1.339-.066 1.909-.199.57-.133 1.015-.275 1.338-.427l.37 2.221a2.78 2.78 0 0 1-.655.27 9.176 9.176 0 0 1-.968.229 17.6 17.6 0 0 1-1.153.17c-.409.048-.803.072-1.182.072zm9.724-15.15h5.61v2.22h-5.61v6.836c0 .74.057 1.353.171 1.837.114.484.285.864.513 1.14.228.274.512.47.854.583.342.114.74.17 1.196.17.798 0 1.439-.09 1.923-.27.484-.18.821-.308 1.01-.384l.513 2.193c-.265.133-.73.299-1.395.498-.665.2-1.424.3-2.278.3-1.007 0-1.837-.129-2.493-.385-.655-.257-1.181-.641-1.58-1.154-.399-.512-.679-1.144-.84-1.894-.162-.75-.242-1.618-.242-2.606V4.061l2.648-.456V8.19zM164.617 23h-2.648V8.19h2.648V23zM163.28 5.513a1.7 1.7 0 0 1-1.21-.47c-.333-.313-.5-.736-.5-1.267 0-.532.167-.954.5-1.268a1.7 1.7 0 0 1 1.21-.47 1.7 1.7 0 0 1 1.21.47c.332.314.498.736.498 1.268 0 .531-.166.954-.498 1.267a1.7 1.7 0 0 1-1.21.47zm19.408 10.082c0 1.177-.171 2.24-.513 3.19-.342.95-.821 1.766-1.438 2.45a6.327 6.327 0 0 1-2.208 1.58c-.854.37-1.784.555-2.79.555-1.007 0-1.937-.185-2.792-.555a6.327 6.327 0 0 1-2.207-1.58c-.617-.684-1.096-1.5-1.438-2.45-.342-.95-.513-2.013-.513-3.19 0-1.158.171-2.217.513-3.175.342-.96.821-1.78 1.438-2.464a6.327 6.327 0 0 1 2.207-1.58c.855-.37 1.785-.556 2.791-.556 1.007 0 1.937.185 2.791.555.855.37 1.59.897 2.208 1.581.617.684 1.096 1.505 1.438 2.464.342.958.513 2.017.513 3.175zm-2.763 0c0-1.67-.375-2.995-1.125-3.973-.75-.978-1.77-1.467-3.062-1.467-1.29 0-2.311.49-3.061 1.467-.75.978-1.125 2.302-1.125 3.973 0 1.671.375 2.995 1.125 3.973.75.978 1.77 1.467 3.061 1.467s2.312-.49 3.062-1.467c.75-.978 1.125-2.302 1.125-3.973zm6.933-6.978a33.621 33.621 0 0 1 2.421-.484c1.007-.17 2.165-.256 3.475-.256 1.177 0 2.155.166 2.933.498.779.333 1.4.798 1.866 1.396.465.598.793 1.315.982 2.15.19.836.285 1.756.285 2.763V23h-2.648v-7.747c0-.911-.062-1.69-.186-2.335-.123-.646-.327-1.168-.612-1.566a2.423 2.423 0 0 0-1.14-.87c-.474-.18-1.062-.27-1.765-.27-.285 0-.579.01-.883.029a21.47 21.47 0 0 0-.868.071 10.91 10.91 0 0 0-.74.1 21.53 21.53 0 0 0-.47.085V23h-2.65V8.617z"/></g></svg>