<?xml version="1.0" encoding="utf-8"?><svg width="171" height="58" xmlns="http://www.w3.org/2000/svg"><g fill="#FFF" fill-rule="evenodd"><path d="M8.467 2A6.475 6.475 0 0 0 2 8.467v40.318a6.475 6.475 0 0 0 6.467 6.467h153.977a6.474 6.474 0 0 0 6.466-6.467V8.467A6.474 6.474 0 0 0 162.444 2H8.467zm153.977 55.252H8.467C3.798 57.252 0 53.454 0 48.785V8.467C0 3.798 3.798 0 8.467 0h153.977c4.668 0 8.466 3.798 8.466 8.467v40.318c0 4.669-3.798 8.467-8.466 8.467z"/><path d="M55.156 14.707c-.404-1.221-.607-1.88-.607-1.98h-.056c0 .092-.21.752-.628 1.98h1.291zm1.639 2.004H55.66c0-.156-.108-.598-.323-1.327h-1.639c-.222.717-.333 1.159-.333 1.327h-1.068c0-.092.276-.849.828-2.27.552-1.422.828-2.204.828-2.349h1.341c0 .135.25.907.751 2.315.5 1.408.75 2.176.75 2.304zM61.369 16.711h-.876c0-.097-.325-.609-.976-1.536-.681-.977-1.069-1.645-1.163-2.004h-.057c.059.518.089.986.089 1.404 0 .585.016 1.297.049 2.136h-.872c.035-.733.053-1.538.053-2.416 0-.863-.018-1.597-.053-2.203h1.053c0 .126.292.626.877 1.501.622.929.979 1.56 1.071 1.891h.053a13.348 13.348 0 0 1-.085-1.419c0-.641-.017-1.299-.05-1.973h.887a40.52 40.52 0 0 0-.049 2.203c0 .89.016 1.695.049 2.416M65.542 14.395c0-.455-.132-.837-.397-1.148-.265-.311-.669-.467-1.213-.467-.102 0-.241.011-.419.032.024.473.036.968.036 1.483 0 .566.012 1.126.035 1.682.154.031.308.046.461.046.509 0 .886-.158 1.13-.474.245-.315.367-.7.367-1.154zm.969-.153c0 .672-.215 1.258-.646 1.76-.43.501-1.033.752-1.809.752-.35 0-.832-.015-1.447-.043.03-.714.046-1.519.046-2.416 0-.861-.016-1.595-.046-2.203h.62c.102 0 .253-.003.455-.01.2-.007.332-.011.393-.011.854 0 1.473.213 1.857.639.385.425.577.936.577 1.532zM69.922 13.447c0-.47-.303-.706-.909-.706-.222 0-.418.017-.588.05.026.367.039.844.039 1.433.13.005.24.007.33.007.752 0 1.128-.261 1.128-.784zm1.33 3.264h-1.05c-.275-.837-.485-1.354-.632-1.55-.146-.196-.383-.295-.709-.295-.137 0-.269.002-.394.004 0 .608.011 1.222.032 1.841h-.986c.031-.714.046-1.519.046-2.416 0-.861-.015-1.595-.046-2.203h.614c.071 0 .219-.003.445-.01s.434-.011.626-.011c1.085 0 1.628.371 1.628 1.114 0 .589-.31.999-.929 1.231v.053c.239.066.448.253.628.559.179.306.422.867.727 1.683zM75.358 14.419c0-.494-.127-.895-.38-1.202-.253-.308-.565-.461-.936-.461-.346 0-.639.155-.88.464-.241.31-.362.702-.362 1.175 0 .492.127.892.382 1.2.254.309.565.463.934.463.346 0 .639-.155.88-.466.241-.311.362-.702.362-1.173zm.979-.102c0 .726-.222 1.328-.667 1.805a2.162 2.162 0 0 1-1.649.717c-.625 0-1.148-.22-1.568-.658-.421-.439-.632-.996-.632-1.673 0-.726.222-1.328.667-1.806a2.165 2.165 0 0 1 1.65-.716 2.09 2.09 0 0 1 1.568.656c.42.438.631.996.631 1.675zM78.343 16.711h-1.004c.031-.733.046-1.538.046-2.416 0-.863-.015-1.597-.046-2.203h1.004a43.654 43.654 0 0 0-.046 2.203c0 .892.015 1.697.046 2.416M82.516 14.395c0-.455-.132-.837-.397-1.148-.265-.311-.669-.467-1.213-.467-.102 0-.242.011-.419.032.024.473.036.968.036 1.483 0 .566.011 1.126.035 1.682.154.031.307.046.461.046.509 0 .885-.158 1.13-.474.245-.315.367-.7.367-1.154zm.969-.153c0 .672-.216 1.258-.646 1.76-.43.501-1.034.752-1.809.752-.35 0-.833-.015-1.448-.043.031-.714.047-1.519.047-2.416 0-.861-.016-1.595-.047-2.203h.621c.102 0 .253-.003.454-.01s.333-.011.394-.011c.854 0 1.473.213 1.857.639.384.425.577.936.577 1.532zM88.667 14.707c-.404-1.221-.607-1.88-.607-1.98h-.057c0 .092-.209.752-.627 1.98h1.291zm1.639 2.004h-1.135c0-.156-.108-.598-.323-1.327h-1.639c-.222.717-.334 1.159-.334 1.327h-1.067c0-.092.276-.849.828-2.27.552-1.422.828-2.204.828-2.349h1.341c0 .135.25.907.751 2.315.5 1.408.75 2.176.75 2.304zM93.529 13.497c0-.506-.336-.759-1.008-.759-.168 0-.345.018-.532.053.026.447.039.953.039 1.518.059.005.128.008.206.008.863 0 1.295-.274 1.295-.82zm.915-.195c0 .565-.21.983-.63 1.252-.419.27-.934.405-1.545.405-.111 0-.19-.003-.237-.007 0 .444.013 1.031.039 1.759h-.997c.03-.683.046-1.489.046-2.416 0-.851-.016-1.585-.046-2.203h.617c.087 0 .256-.003.504-.01s.463-.011.645-.011c.45 0 .829.102 1.139.305.31.204.465.512.465.926zM97.783 13.497c0-.506-.335-.759-1.007-.759-.168 0-.346.018-.532.053.026.447.039.953.039 1.518.059.005.128.008.206.008.863 0 1.294-.274 1.294-.82zm.916-.195c0 .565-.21.983-.63 1.252-.42.27-.935.405-1.545.405-.111 0-.19-.003-.238-.007 0 .444.013 1.031.039 1.759h-.996c.03-.683.046-1.489.046-2.416 0-.851-.016-1.585-.046-2.203h.617c.087 0 .255-.003.504-.01.248-.007.463-.011.645-.011.449 0 .829.102 1.139.305.31.204.465.512.465.926zM104.676 14.419c0-.494-.127-.895-.38-1.202-.253-.308-.565-.461-.936-.461-.346 0-.639.155-.88.464-.241.31-.362.702-.362 1.175 0 .492.127.892.382 1.2.254.309.565.463.934.463.346 0 .639-.155.88-.466.241-.311.362-.702.362-1.173zm.979-.102c0 .726-.222 1.328-.667 1.805a2.164 2.164 0 0 1-1.65.717c-.624 0-1.147-.22-1.568-.658-.42-.439-.631-.996-.631-1.673 0-.726.222-1.328.667-1.806a2.165 2.165 0 0 1 1.649-.716c.625 0 1.148.219 1.568.656.421.438.632.996.632 1.675zM110.463 16.711h-.876c0-.097-.325-.609-.975-1.536-.682-.977-1.07-1.645-1.164-2.004h-.057c.059.518.089.986.089 1.404 0 .585.016 1.297.05 2.136h-.873c.035-.733.053-1.538.053-2.416 0-.863-.018-1.597-.053-2.203h1.053c0 .126.293.626.877 1.501.622.929.979 1.56 1.071 1.891h.053a13.348 13.348 0 0 1-.085-1.419c0-.641-.016-1.299-.05-1.973h.887a40.52 40.52 0 0 0-.049 2.203c0 .89.016 1.695.049 2.416M68.614 31.509c0 2.292-.68 4.119-2.04 5.479-1.544 1.62-3.554 2.43-6.03 2.43-2.369 0-4.382-.821-6.04-2.464-1.659-1.643-2.487-3.68-2.487-6.11 0-2.429.828-4.466 2.487-6.109 1.658-1.643 3.671-2.464 6.04-2.464 1.177 0 2.3.228 3.371.687 1.069.458 1.925 1.071 2.567 1.834l-1.444 1.445c-1.085-1.299-2.583-1.949-4.494-1.949-1.727 0-3.22.607-4.481 1.823-1.261 1.215-1.892 2.793-1.892 4.733 0 1.942.631 3.519 1.892 4.735 1.261 1.214 2.754 1.822 4.481 1.822 1.834 0 3.363-.611 4.585-1.834.795-.795 1.253-1.903 1.375-3.324h-5.96v-1.972h7.955a7 7 0 0 1 .115 1.238M72.683 36.38c.726.742 1.585 1.113 2.579 1.113.993 0 1.853-.371 2.579-1.113.726-.741 1.089-1.722 1.089-2.945 0-1.223-.363-2.204-1.089-2.946-.726-.741-1.586-1.112-2.579-1.112-.994 0-1.853.371-2.579 1.112-.726.742-1.089 1.723-1.089 2.946s.363 2.204 1.089 2.945zm-1.57-7.22c1.085-1.139 2.468-1.708 4.149-1.708s3.064.569 4.15 1.708c1.085 1.138 1.627 2.563 1.627 4.275 0 1.712-.542 3.137-1.627 4.275-1.086 1.139-2.469 1.708-4.15 1.708-1.681 0-3.064-.569-4.149-1.708-1.085-1.138-1.628-2.563-1.628-4.275 0-1.712.543-3.137 1.628-4.275zM84.948 36.38c.725.742 1.585 1.113 2.579 1.113.993 0 1.852-.371 2.579-1.113.726-.741 1.089-1.722 1.089-2.945 0-1.223-.363-2.204-1.089-2.946-.727-.741-1.586-1.112-2.579-1.112-.994 0-1.854.371-2.579 1.112-.727.742-1.089 1.723-1.089 2.946s.362 2.204 1.089 2.945zm-1.571-7.22c1.085-1.139 2.468-1.708 4.15-1.708 1.68 0 3.063.569 4.149 1.708 1.085 1.138 1.627 2.563 1.627 4.275 0 1.712-.542 3.137-1.627 4.275-1.086 1.139-2.469 1.708-4.149 1.708-1.682 0-3.065-.569-4.15-1.708-1.085-1.138-1.628-2.563-1.628-4.275 0-1.712.543-3.137 1.628-4.275zM99.7 37.493c.993 0 1.838-.368 2.533-1.101.695-.733 1.043-1.72 1.043-2.957 0-1.238-.348-2.224-1.043-2.957-.695-.734-1.54-1.101-2.533-1.101-.979 0-1.82.371-2.522 1.112-.703.742-1.055 1.723-1.055 2.946s.352 2.204 1.055 2.945c.702.742 1.543 1.113 2.522 1.113zm-.16 6.877c-1.331 0-2.416-.332-3.256-.997-.841-.666-1.445-1.426-1.811-2.282l1.926-.801c.214.61.607 1.123 1.181 1.535a3.262 3.262 0 0 0 1.96.619c1.161 0 2.074-.348 2.739-1.043s.997-1.639.997-2.831v-1.077h-.092c-.367.549-.887 1.008-1.559 1.375-.672.367-1.429.55-2.269.55-1.452 0-2.705-.573-3.76-1.719-1.055-1.147-1.582-2.568-1.582-4.264 0-1.696.527-3.118 1.582-4.265 1.055-1.145 2.308-1.718 3.76-1.718.84 0 1.597.183 2.269.549.672.368 1.192.826 1.559 1.376h.092v-1.559h2.017v10.66c0 1.926-.558 3.389-1.673 4.391-1.116 1-2.476 1.501-4.08 1.501zM107.288 39.051h2.108V22.637h-2.108zM119.391 32.082c-.046-.642-.341-1.252-.883-1.834-.543-.581-1.349-.871-2.419-.871-.779 0-1.455.245-2.028.734s-.967 1.146-1.181 1.971h6.511zm-3.026 7.336c-1.697 0-3.076-.565-4.138-1.697-1.062-1.13-1.594-2.559-1.594-4.286 0-1.636.516-3.041 1.548-4.219 1.031-1.176 2.35-1.764 3.954-1.764 1.666 0 2.999.543 4 1.628s1.502 2.537 1.502 4.355l-.022.39h-8.872c.06 1.131.439 2.025 1.134 2.681.696.658 1.509.987 2.442.987 1.513 0 2.537-.643 3.072-1.926l1.879.779c-.366.871-.971 1.602-1.811 2.19-.84.587-1.872.882-3.094.882zM129.936 30.386h3.53c.886 0 1.597-.299 2.132-.894.535-.596.803-1.253.803-1.972 0-.718-.268-1.375-.803-1.971-.535-.596-1.246-.894-2.132-.894h-3.53v5.731zm0 8.665h-2.109V22.637h5.593c1.391 0 2.594.463 3.611 1.387 1.016.926 1.524 2.091 1.524 3.496 0 1.406-.508 2.572-1.524 3.496-1.017.925-2.22 1.387-3.611 1.387h-3.484v6.648zM139.931 39.051h2.109V22.637h-2.109zM147.816 37.493c.871 0 1.662-.326 2.373-.975.711-.649 1.065-1.417 1.065-2.304-.595-.489-1.489-.733-2.681-.733-1.025 0-1.796.222-2.316.664-.519.444-.779.963-.779 1.56 0 .549.236.985.711 1.306.473.32 1.016.482 1.627.482zm-.344 1.925c-1.192 0-2.189-.344-2.991-1.032-.803-.687-1.204-1.596-1.204-2.727 0-1.223.473-2.182 1.422-2.877.947-.696 2.116-1.043 3.507-1.043 1.238 0 2.254.228 3.048.687v-.321c0-.825-.282-1.486-.847-1.982-.566-.498-1.261-.746-2.086-.746-.612 0-1.166.146-1.662.436-.497.29-.837.687-1.021 1.191l-1.926-.825c.26-.672.772-1.295 1.536-1.868.764-.573 1.773-.859 3.027-.859 1.436 0 2.628.421 3.576 1.26.947.841 1.421 2.026 1.421 3.554v6.785h-2.018v-1.558h-.09c-.841 1.283-2.072 1.925-3.692 1.925zM157.858 44.002h-2.178l2.613-5.662-4.63-10.522h2.292l3.347 8.07h.046l3.255-8.07h2.292l-7.037 16.184M12.679 30.566c0-5.243.002-10.486-.003-15.728 0-.644.125-1.231.581-1.717.177-.189.304-.24.522-.018 3.527 3.599 7.063 7.191 10.599 10.783 2.289 2.326 4.577 4.653 6.876 6.97.223.225.243.343.007.578A6505.527 6505.527 0 0 0 14.418 48.23c-.343.343-.583.307-.911.054-.601-.462-.831-1.08-.83-1.817.001-3.105-.005-6.21-.007-9.315v-6.586h.009M14.694 12.522c.429-.003.731.12 1.023.284 7.18 4.024 14.359 8.049 21.544 12.064.33.184.323.287.068.538a769.037 769.037 0 0 0-4.791 4.767c-.172.172-.276.271-.507.036-5.712-5.826-11.433-11.643-17.152-17.462-.048-.05-.088-.106-.185-.227M16.301 48.097c5.212-5.268 10.427-10.532 15.627-15.812.322-.328.473-.284.762.017a308.495 308.495 0 0 0 4.007 4.082c.237.238.257.335-.064.511-6.691 3.662-13.376 7.336-20.062 11.005-.11.061-.213.16-.27.197M46.074 30.712c-.022.59-.301 1.005-.723 1.316-.312.231-.656.42-.997.608-2.023 1.119-4.051 2.226-6.07 3.352-.272.152-.434.146-.659-.088a441.617 441.617 0 0 0-4.345-4.42c-.212-.213-.218-.33 0-.544a730.585 730.585 0 0 0 5.069-5.045c.198-.2.34-.222.587-.082 1.998 1.132 4.006 2.249 6.009 3.372.62.347 1.102.797 1.129 1.531"/></g></svg>