<?xml version="1.0" encoding="UTF-8"?>
<svg width="231px" height="69px" viewBox="0 0 231 69" version="1.1" xmlns="http://www.w3.org/2000/svg" xmlns:xlink="http://www.w3.org/1999/xlink">
    <!-- Generator: Sketch 48.2 (47327) - http://www.bohemiancoding.com/sketch -->
    <title>Button Windows Store</title>
    <desc>Created with Sketch.</desc>
    <defs></defs>
    <g id="Landing-Page-Copy" stroke="none" stroke-width="1" fill="none" fill-rule="evenodd" transform="translate(-1107.000000, -5463.000000)">
        <g id="Group-13" transform="translate(174.000000, 5220.000000)">
            <g id="Button-Windows-Store" transform="translate(933.000000, 243.000000)">
                <rect id="Rectangle-9" stroke="#FFFFFF" stroke-width="2" x="1" y="1" width="229" height="67" rx="6"></rect>
                <g id="Group-16" transform="translate(37.000000, 15.000000)">
                    <text id="Description-Copy" font-family="Roboto-Regular, Roboto" font-size="12.1000003" font-weight="normal" fill="#DDE0E5">
                        <tspan x="49.5000011" y="11">Download from</tspan>
                    </text>
                    <text id="Description-Copy-2" font-family="Roboto-Bold, Roboto" font-size="16.5000004" font-weight="bold" fill="#FFFFFF">
                        <tspan x="49.5000011" y="32.6000004">Windows Store</tspan>
                    </text>
                    <path d="M15.5905044,3.4972611 C15.6527171,3.77721828 15.6888005,4.11565541 15.6950218,4.51630525 C14.2641295,5.13469956 13.7129249,5.57765403 13.73781,7.69910735 L13.73781,8.99810868 L12.7573377,9.19594508 L12.7573377,7.69039757 C12.7573377,4.56483116 13.953066,4.07210652 15.5905044,3.4972611 L15.5905044,3.4972611 Z M18.4410907,2.82785237 C18.5057919,3.13020613 18.5580506,3.46117773 18.5928897,3.81330165 C21.1560532,3.44500243 21.1062831,4.5038627 21.1062831,6.7099253 L21.1062831,7.52491177 L22.0768013,7.32583111 L22.0768013,6.7099253 C22.0768013,3.28200513 21.541772,2.36374558 18.4410907,2.82785237 L18.4410907,2.82785237 Z M8.34023553,10.0793655 L8.34023553,5.57143276 C8.30912918,2.77808221 9.75121973,1.92203535 12.4139236,1.29866403 C16.425399,0.358007894 16.6804711,2.94356801 16.6804711,4.58971624 L16.6804711,8.40957647 L17.6621876,8.21174006 L17.6621876,4.67308127 C17.6522336,1.55871314 16.6817153,-0.773019124 12.2185757,0.23980375 C9.81343244,0.784787065 7.35976327,1.39820436 7.35976327,5.4781137 L7.35976327,10.2734692 L8.34023553,10.0793655 L8.34023553,10.0793655 Z M20.0909717,21.9283977 L12.5420818,21.9283977 L12.5420818,16.4661221 L20.0909717,15.3599801 L20.0909717,21.9283977 L20.0909717,21.9283977 Z M20.0909717,29.6465062 L12.5420818,28.5428528 L12.5420818,22.6811715 L20.0909717,22.6811715 L20.0909717,29.6465062 L20.0909717,29.6465062 Z M11.7905523,21.9283977 L5.80195708,21.9283977 L5.80195708,17.3557638 L11.7905523,16.5096709 L11.7905523,21.9283977 L11.7905523,21.9283977 Z M11.7905523,28.4955711 L5.80195708,27.6519668 L5.80195708,22.6811715 L11.7905523,22.6811715 L11.7905523,28.4955711 L11.7905523,28.4955711 Z M26.9853839,7.53362155 L0,12.9299518 L0,32.5568167 L26.9853839,37.9519026 L32.3792256,35.9897138 L32.3792256,9.49581033 L26.9853839,7.53362155 L26.9853839,7.53362155 Z" id="Fill-1" fill="#FFFFFF"></path>
                </g>
            </g>
        </g>
    </g>
</svg>